**ABCDEFGHIJKLMNOPQRSTUVWXYZabcdefghijklmnopqrstuvwxyz**************************
**PARASOLID !"#$%&'()*+,-./:;<=>?@[\]^_`{|}~0123456789**************************
**PART1;
MC=AMD64;
MC_MODEL=AMD64 Family 21 Model 19 Stepping 1, AuthenticAMD;
MC_ID=unknown;
OS=Windows_NT;
OS_RELEASE=unknown;
FRU=Parasolid Version 28.0, build 209,  1-25-2016;
APPL=SOLIDWORKS 2016-2016195;
SITE=;
USER=unknown;
FORMAT=text;
GUISE=transmit;
KEY=makeProjectedPlanarWire;
FILE=makeProjectedPlanarWire.x_t;
DATE=Mon Nov 07 02:01:37 2022;
**PART2;
SCH=SCH_2800209_28002;
USFLD_SIZE=0;
**PART3;
**END_OF_HEADER*****************************************************************
T51 : TRANSMIT FILE created by modeller version 280020923 SCH_2800209_28002_1300
6200 0 12 30 CCCCCCCCCCCCCDI5 owner1040 0 CCCCCCCCCA13 boundary_mesh1006 0 A16 i
ndex_map_offset0 0 1 dA9 index_map82 0 A17 node_id_index_map82 0 A20 schema_embe
dding_map82 0 A5 child12 0 A14 lowest_node_id0 0 1 dZ1 159 0 2 0 0 0 0 1e3 1e-8
 0 3 0 1 0 3 1 4 5 6 7 8 9 10 0 0 0 0 0 0 0 70 11 CI9 list_type0 0 1 uI10 notran
smit0 0 1 lCCCDCCDI12 finger_index0 0 1 dI12 finger_block1012 0 CZ2 0 4 T1 0 0 1
 20 1 11 11 13 255 4 140 0 1 0 12 0 0 8 12 124 255 5 85 0 1 13 0 14 +15 16 38 25
5 6 83 0 1 17 0 18 +13 19 20 21 22 29 255 7 133 0 10 23 0 .058504846190766 -.145
 .00998808926083666 19 8 CCCCCCCA5 owner12 0 Z8 139 0 1 0 0 4 V0 16 255 9 81 0 ?
24 0 25 17 0 0 1 18 255 10 131 0 26 0 27 7 500176010680422e-19 1 17 255 26 0 0 0
 0 10 28 29 0 24 -18 27 128 0 30 10 31 23 ?1 17 30 0 32 24 33 27 34 25 0 35 +18
 31 125 0 33 27 36 37 ?1 29 23 130 0 27 37 7 .0534376358122684 -.145 .0149985587
933854 29 37 127 0 31 38 23 -.0535312668852575 -.145 .01499556085640474 29 38 12
4 0 36 39 37 -.0585035455413156 -.145 .01004599563422114 18 36 122 0 40 31 41 38
 4995004995005e-17 1 29 39 121 0 41 42 38 -.0585050434154437 -.145 -.01002365607
46295 18 41 119 0 43 36 44 39 4995004995005e-17 1 29 42 118 0 44 45 39 -.0534376
843429729 -.145 -.0149985587943443 18 44 116 0 46 41 47 42 ?1 29 45 115 0 47 48
 42 .0535312275369928 -.145 -.01499556085785072 18 47 113 0 49 44 50 45 ?1 29 48
 112 0 50 51 45 .0585035455074169 -.145 -.01004604971596094 18 50 110 0 28 47 52
 48 4995004995005e-17 1 29 51 109 0 52 53 48 .0535125 -.145 -.02 18 52 107 0 54
 50 55 51 2507288372190675e-20 1 29 53 106 0 55 56 51 -.0535125 -.145 -.02 18 55
 104 0 57 52 58 53 2507288372190675e-20 1 29 56 103 0 58 59 53 -.0635125 -.145 -
.01 18 58 101 0 60 55 61 56 2507288372190675e-20 1 29 59 100 0 61 62 56 -.063512
5 -.145 .01 18 61 98 0 63 58 64 59 2507288372190675e-20 1 29 62 97 0 64 65 59 -.
0535125 -.145 .02 18 64 95 0 66 61 67 62 2507288372190675e-20 1 29 65 94 0 67 68
 62 .0535125 -.145 .02 18 67 92 0 69 64 70 65 2507288372190675e-20 1 29 68 91 0
 70 71 65 .0635125 -.145 .01 18 70 89 0 72 67 73 68 2507288372190675e-20 1 29 71
 88 0 73 0 68 .0635125 -.145 -.01 18 73 86 0 74 70 0 71 2507288372190675e-20 1 1
7 74 0 75 72 76 73 54 77 78 79 -15 255 75 5 0 74 12 32 17 72 0 75 69 74 70 79 80
 81 82 -17 76 0 75 74 57 52 83 84 85 0 -17 54 0 0 0 0 52 74 77 0 76 +16 77 23 0
 2507288372190675e-20 54 80 0 0 0 0 1 133 255 78 6 0 74 0 86 0 +86 .0535125 -.14
5 -.02 .0635125 -.145 -.01 0 1 17 79 0 0 0 0 73 72 80 0 0 +16 80 26 0 2507288372
190675e-20 79 87 77 0 0 0 1 16 87 29 0 2507288372190675e-20 82 88 80 0 0 0 1 17
 82 0 0 0 0 70 69 87 0 0 +16 88 32 0 2507288372190675e-20 89 90 87 0 0 0 1 17 89
 0 0 0 0 67 66 88 0 0 +16 90 35 0 2507288372190675e-20 91 92 88 0 0 0 1 17 91 0
 0 0 0 64 63 90 0 0 +16 92 38 0 2507288372190675e-20 93 94 90 0 0 0 1 17 93 0 0
 0 0 61 60 92 0 0 +16 94 41 0 2507288372190675e-20 95 84 92 0 0 0 1 17 95 0 0 0
 0 58 57 94 0 0 +16 84 44 0 2507288372190675e-20 83 29 94 0 0 0 1 17 83 0 0 0 0
 55 76 84 0 0 +16 29 47 0 ?28 96 84 97 0 0 1 17 28 0 32 49 24 50 26 29 0 98 +16
 96 53 0 ?49 99 29 100 0 0 1 133 97 48 0 29 101 102 0 +102 .0585049137399793 -.1
45 .00998808875357178 .0585035446507168 -.145 -.01004604971592382 0 .02003413851
803275 137 255 101 21 0 1 85 97 103 +104 105 0 ?38 102 49 0 1 97 100 106 +107 19
 108 109 110 133 100 54 0 96 102 111 0 +111 .0585035455074169 -.145 -.0100460497
159609 .0535312275369928 -.145 -.01499556085785072 0 .00774171960057536 141 255
 106 97 106 106 102 60 255 107 50 0 1 104 112 113 +UF112 -.005 ?50 255 19 52 0 1
 112 114 115 +.0535125 -.145 -.01 0 -1 0 0 0 -1 40 255 4 108 0 1 4 5654173133628
99e-22 1703132720043205e-20 ??.0585049137399793 -.145 .00998808875357178 .058504
3355173274 -.145 .003090215207553105 .0585038860601505 -.145 -.00347791725006481
 .0585035446507168 -.145 -.0100460497159238 41 3 CI8 term_use0 0 1 cCZ1 109 L?.0
585049137399793 -.145 .00998808875357178 41 1 110 L?.0585035446507168 -.145 -.01
00460497159238 124 112 51 0 1 107 19 116 +117 118 60 114 56 0 1 19 119 120 +UF11
9 -.005 ?141 115 102 121 122 19 141 121 6 123 115 19 141 122 111 115 124 19 38 1
11 55 0 1 100 125 126 +114 19 127 128 129 141 124 125 122 130 19 38 125 59 0 99
 111 131 0 +132 19 133 134 135 141 130 136 124 137 19 38 136 64 0 1 131 138 139
 +140 19 141 142 143 141 137 144 130 145 19 38 144 69 0 1 138 146 147 +148 19 14
9 150 151 141 145 152 137 123 19 38 152 74 0 1 146 153 154 +155 19 156 157 158 1
41 123 153 145 121 19 38 153 78 0 25 152 17 0 +159 19 160 161 162 16 25 77 0 ?30
 9 163 153 0 0 1 133 17 82 0 9 153 6 0 +6 .0534376358122684 -.145 .0149985587933
854 .0585047786415526 -.145 .00998808976810153 0 .00776198013560746 60 159 79 0
 1 164 165 166 +VF165 -.005 ?40 3 160 0 1 3 2394957415063605e-22 883607848530613
e-20 ??-.0535312668852575 -.145 .01499556085640472 -468155448372916e-19 -.145 .0
1499728684709526 .0534376358122684 -.145 .0149985587933854 41 1 161 L?-.05353126
68852575 -.145 .01499556085640472 41 1 162 L?.0534376358122684 -.145 .0149985587
933854 124 164 76 0 1 155 159 167 +168 169 124 165 80 0 1 159 13 170 +171 172 14
1 166 153 166 166 159 60 13 84 0 1 165 5 173 +UF5 -.005 ?141 170 159 170 170 165
 126 255 171 FF3 1 12 2 6 5 5 2 FFF9 3 174 175 176 177 178 125 255 172 0 1 .0107
1401365811176 1 -.473450976565056 1 .01071401365811176 1 1 BBBBBBBB????0 0 0 0 4
5 255 72 174 -.0691735826467526 -.001553531980426215 .0177513643065906 .10418359
0766875 -.145 .02 -.0693611908444023 -.001553531980426215 .01752464691123775 .09
4581789594147 -.145 .02 -.0695487990420519 -.001553531980426215 .017297929515884
95 .0849799884214188 -.145 .02 -.0697364072397016 -.001553531980426215 .01707121
212053215 .0753781872486906 -.145 .02 -.0698788174014794 -.001553531980426215 .0
1689911483824645 .0680896248324604 -.145 .02 -.0700212275632571 -.00155353198042
6215 .01672701755596075 .0608010624162302 -.145 .02 -.0701636377250349 -.0015535
31980426215 .01655492027367505 .0535125 -.145 .02 -.070512162045147 -.0015535319
80426215 .0161337418440391 .035675 -.145 .02 -.0708389902174885 -.00155353198042
621 .0157063888261906 .0178375 -.145 .02 -.0714496182990847 -.00155353198042621
 .0148394372154327 -.0178375 -.145 .02 -.0717333454732462 -.00155353198042622 .0
1439981792256996 -.035675 -.145 .02 -.0719946779376786 -.00155353198042622 .0139
5382523512204 -.0535125 -.145 .02 127 255 5 175 4 3 3 2 4 127 2 176 2 2 128 255
 5 177 -.473450976565056 -.2043044825852895 0 .5 1 128 2 178 .01071401365811176
 1 141 173 6 173 173 13 60 155 75 0 1 179 164 180 +UF164 -.005 ?141 167 155 167
 167 164 126 168 FF3 1 22 3 6 5 11 3 FFF9 3 181 182 183 184 185 125 169 0 1 0 1
 0 1 0 1.01 1 BBBBBBBB????0 0 0 0 45 198 181 -.0721948407920906 -156125112837912
5e-32 .01388834487867854 -.0535125 -.145 .02 -.0533256765920791 -.14645 .0200611
165512132 -.0722842280710389 -1561251128379125e-32 .01332062392322722 -.05380712
78254944 -.145 .02 -.0536223568230389 -.14645 .02006679376076775 -.0723376731828
928 1040834085586082e-32 .0127412196153844 -.0541072646704004 -.145 .01998690413
182365 -.0539249605852754 -.14645 .02005936097698805 -.0723687330820109 10408340
85586084e-32 .01158462014504288 -.0547149952335895 -.145 .01993207168468875 -.05
45384578551053 -.14645 .0200155462000852 -.0723525485646749 650521303491303e-32
 .0110049987473593 -.0550225889518727 -.145 .0198903351057302 -.0548492893557446
 -.14645 .0199791884693139 -.072340844311052 650521303491302e-32 .00926762692140
176 -.055951213668619 -.145 .0197184908410369 -.0557873173621947 -.14645 .019822
99948023325 -.0723340059675722 2602085213965215e-33 .00810937373824235 -.0565779
623436993 -.145 .0195415478112447 -.0564204019074606 -.14645 .0196558695519747 -
.0723227976950217 260208521396521e-32 .00579285380977093 -.0578089318475382 -.14
5 .01905421821000395 -.0576637931890633 -.14645 .01918683185400625 -.07231846435
60366 227682456221956e-32 .00463458712117685 -.0584129031661004 -.145 .018743716
65546315 -.0582738475542011 -.14645 .01888480795080605 -.0723125990897781 162630
3258728255e-33 .00231804986133268 -.0595562919016025 -.145 .01799619356890985 -.
0594287288297207 -.14645 .01815297500598565 -.0723110671625046 1301042606982606e
-33 .001159779290082606 -.0600954124471764 -.145 .01755922317655455 -.0599732559
000231 -.14645 .01772321761541925 -.0723110645368002 1301042606982606e-33 -.0011
56756169012768 -.0610717231765546 -.145 .01658291244717635 -.0609593297629521 -.
14645 .01676030913333825 -.0723125937496316 1301042606982606e-33 -.0023150023488
95645 -.0615086935689099 -.145 .0160437919016024 -.0614006545671027 -.14645 .016
2273798441074 -.0723184540035198 1301042606982606e-33 -.00463152458233073 -.0622
562166554632 -.145 .01490040316610036 -.0621555942819826 -.14645 .01509572244358
47 -.0723227850445768 1301042606982606e-33 -.00578980063588293 -.062566718210003
9 -.145 .0142964318475381 -.0624691575416582 -.14645 .0144972941723723 -.0723339
897317749 1301042606982606e-33 -.00810645558965563 -.0630540478112447 -.145 .013
06546234369926 -.0629612483920394 -.14645 .01327718152303282 -.0723408270628045
 641976648129079e-49 -.00926485517809829 -.0632309908410369 -.145 .0124387136686
1894 -.0631398924788192 -.14645 .01265574935708612 -.0723525312849864 3370377402
677665e-49 -.01100253912340808 -.0634028351057302 -.145 .0115100889518726 -.0633
133381439376 -.14645 .0117352152326254 -.0723686891558287 -1301042606982604e-33
 -.0115824827664329 -.0634445716846887 -.145 .01120249523358944 -.06335533050997
73 -.14645 .01143034501358966 -.0723378421626866 -1301042606982606e-33 -.0127386
819476504 -.0634994041318236 -.145 .0105947646704003 -.063411019751515 -.14645 .
0108280991365808 -.0722851744214386 -1301042606982606e-33 -.01331460682750382 -.
0635125 -.145 .01029462782549432 -.0634247732557856 -.14645 .0105307201720243 -.
0721948417146612 -1301042606982604e-33 -.01388833243049326 -.0635125 -.145 .01 -
.0634256765828534 -.14645 .01023888332430486 127 11 182 4 2 2 2 2 2 2 2 2 2 4 12
7 3 183 2 1 2 128 11 184 0 .0625 .125 .25 .375 .5 .625 .75 .875 .9375 1 128 3 18
5 0 1 1.01 124 179 71 0 1 148 155 186 +187 188 141 180 152 180 180 155 60 148 70
 0 1 189 179 190 +UF179 -.005 ?141 186 148 186 186 179 126 187 FF3 1 12 3 6 5 5
 3 FFF9 3 191 192 193 194 195 125 188 0 1 0 1 -.0117346144183077 1.01 0 1.01 1 B
BBBBBBB????0 0 0 0 45 108 191 -.0721997414502762 -1301042606982604e-33 -.0138572
1298471902 -.0635125 -.145 .0102346922883661 -.0634256275854973 -.14645 .0104756
1134109694 -.0721981082050712 -1301042606982604e-33 -.01386758613331044 -.063512
5 -.145 .01015646152557736 -.0634256439179493 -.14645 .01039670200216624 -.07219
64749598662 -1301042606982604e-33 -.01387795928190184 -.0635125 -.145 .010078230
76278864 -.0634256602504013 -.14645 .01031779266323556 -.0721948417146612 -13010
42606982604e-33 -.01388833243049326 -.0635125 -.145 .01 -.0634256765828534 -.146
45 .01023888332430486 -.0721252507955746 -1301042606982606e-33 -.014330321754626
16 -.0635125 -.145 .00666666666666662 -.0634263724920442 -.14645 .00687663655087
954 -.0720331312925985 -1301042606982604e-33 -.01477099562306622 -.0635125 -.145
 .003333333333333305 -.063427293687074 -.14645 .0035143766228973 -.0718024628303
421 -1301042606982604e-33 -.01564963231992215 -.0635125 -.145 -.0033333333333333
15 -.0634296003716966 -.14645 -.00321017034346743 -.0716628048964133 -1561251128
379125e-32 -.0160901694208814 -.0635125 -.145 -.00666666666666662 -.063430996951
0358 -.14645 -.00657243163912447 -.0715030582906161 -1561251128379125e-32 -.0165
1759143302535 -.0635125 -.145 -.01 -.0634325944170938 -.14645 -.0099348240856696
7 -.0714998633585002 -1561251128379125e-32 -.0165261398732682 -.0635125 -.145 -.
0100666666666666 -.063432626366415 -.14645 -.01000207193460058 -.071496668426384
2 -1561251128379125e-32 -.0165346883135111 -.0635125 -.145 -.01013333333333326 -
.0634326583157362 -.14645 -.01006931978353148 -.0714934734942683 -15612511283791
25e-32 -.01654323675375395 -.0635125 -.145 -.0102 -.0634326902650573 -.14645 -.0
1013656763246238 127 5 192 4 3 2 3 4 127 3 193 2 1 2 128 5 194 -.011734614418307
7 0 .5 1 1.01 128 3 195 0 1 1.01 124 189 66 0 1 140 148 196 +197 198 141 190 144
 190 190 148 60 140 65 0 1 199 189 200 +UF189 -.005 ?141 196 140 196 196 189 126
 197 FF3 1 40 4 6 5 20 4 FFF9 3 201 202 203 204 205 125 198 0 1 0 1 0 1.11384775
2958854 -.0101 1.01 1 BBBBBBBB????0 0 0 0 45 480 201 -.0715837629293513 .0014644
99999999984 -.0165834191064989 -.0715030582906161 -1561251128379125e-32 -.016517
59143302535 -.0635125 -.145 -.01 -.0634325944170938 -.14645 -.00993482408566967
 -.0704669914042467 .001464499999999984 -.0195685051773748 -.0703974533751576 -1
561251128379125e-32 -.01947577558500375 -.0635125 -.145 -.01029462782549432 -.06
34436504662484 -.14645 -.01020281634789922 -.0683050587597383 .0014645 -.0220907
0048250125 -.068257006971062 6505213034913e-30 -.0219757525053681 -.063499404131
8237 -.145 -.0105947646704003 -.0634518281034313 -.14645 -.01048095479205062 -.0
628477990132206 .0014645 -.02542668224263055 -.0628537661491298 650521303491302e
-32 -.02528445445449935 -.0634445716846888 -.145 -.01120249523358944 -.063450479
7400444 -.14645 -.01106167564138034 -.0596487301127537 .0014645000000001 -.02619
844157860505 -.0596862674461158 1001802807376606e-31 -.02605157259382135 -.06340
28351057302 -.145 -.0115100889518726 -.0634400007823264 -.14645 -.01136467411545
312 -.0556956151998874 .0014645000000001 -.0263312417217628 -.0557719638219068 1
001802807376606e-31 -.02618691375361485 -.0633312333287747 -.145 -.0118970159171
836 -.0634068260238433 -.14645 -.01175411693881926 -.0549024626907457 .0014645 -
.02630708875185205 -.0549865891173188 845677694538683e-32 -.0261637772644313 -.0
633159382829669 -.145 -.01197452108416114 -.0633992317746234 -.14645 -.011832628
52235844 -.0533155130103487 .0014645 -.02624551048787935 -.0534151818305572 8456
77694538694e-32 -.02610436632789755 -.0632833818512051 -.145 -.01212969702276826
 -.0633820638514116 -.14645 -.01198995032971696 -.0525220886467855 .001464499999
999986 -.02621524208406075 -.0526295183283681 -1301042606982604e-32 -.0260751772
0897355 -.063266120465251 -.145 -.01220736779439784 -.0633724864866199 -.14645 -
.0120686897002521 -.0501417646635013 .001464499999999986 -.0261261295611339 -.05
02724476915346 -1301042606982604e-32 -.0259892869903069 -.0632113613581995 -.145
 -.01244051760149658 -.0633407504948661 -.14645 -.01230502990760848 -.0485548434
375401 .0014645 -.02606898258223335 -.0487009894201446 -715573433840434e-32 -.02
593426743583605 -.0631708886879127 -.145 -.01259613412917574 -.0633155876805904
 -.14645 -.01246275279610914 -.04379393142684455 .0014645 -.02590533279067095 -.
04398634673524085 -715573433840436e-32 -.02577691864066565 -.0630373673685377 -.
145 -.01306264636290904 -.0632278775748706 -.14645 -.0129355036401315 -.04061985
042460275 .001464500000000018 -.02580671864541345 -.04084295198520265 1821459649
77565e-31 -.025682395815347 -.0629322154109345 -.145 -.01337320471965898 -.06315
31080451918 -.14645 -.0132501128087021 -.0310974583359158 .001464500000000018 -.
0255478974018664 -.03141211978005825 182145964977565e-31 -.02543539388528515 -.0
625667182100039 -.145 -.0142964318475381 -.0628782641943034 -.14645 -.0141850422
2716062 -.0247485608542253 .001464500000000016 -.0254290677087849 -.025123600279
6213 1740144486839235e-32 -.0253237914867464 -.0622562166554632 -.145 -.01490040
316610036 -.0626275428192216 -.14645 -.0147961692828939 -.01205096504859022 .001
464500000000016 -.0252752804102885 -.01254549337059322 157751416096641e-31 -.025
1829746643844 -.0615086935689098 -.145 -.01604379190160245 -.061998325570893 -.1
4645 -.0159524000739746 -.00570226620813508 .001464500000000014 -.02524032580327
435 -.00625590596200206 1496198998029996e-32 -.02515376024056115 -.0610717231765
546 -.145 -.0165829124471764 -.0616198813487001 -.14645 -.01649720396924255 .006
99363264349298 .001464500000000014 -.02523068323854105 .00632280861080734 149619
8998029996e-32 -.02515397623267425 -.0600954124471764 -.145 -.01755922317655455
 -.0607595946577562 -.14645 -.01748327564599335 .01334133154116996 .001464500000
000014 -.02525605025676095 .0126124274754616 1496198998029996e-32 -.025183458877
14775 -.0595562919016024 -.145 -.01799619356890985 -.0602779790953731 -.14645 -.
0179243209158275 .02603498055896095 .001464500000000014 -.02539134464904815 .025
1905853251988 1496198998029996e-32 -.02532487495027055 -.0584129031661004 -.145
 -.01874371665546315 -.0592489380510134 -.14645 -.0186779050725151 .032380933677
47575 .001464500000000014 -.0255012725396259 .03147912431028175 1496198998029996
e-32 -.02543680837891985 -.0578089318475381 -.145 -.01905421821000395 -.05870181
24091163 -.14645 -.0189903923083148 .04189765641691535 .001464500000000014 -.025
74759525940935 .0409099206011749 149619899803e-28 -.0256843227255319 -.056885704
719659 -.145 -.0194197154109345 -.0578636609728673 -.14645 -.01935706933778855 .
0450695901864753 .001464499999999984 -.02584217399844155 .0440532434493713 -1496
198998029996e-32 -.02577900718628235 -.0565751463629091 -.145 -.0195248673685376
5 -.0575814302610319 -.14645 -.0194623259703602 .0498271284262267 .0014644999999
99984 -.02599998377767855 .0487678756771825 -1496198998029998e-32 -.025936574104
96635 -.0561086341291758 -.145 -.0196583886879127 -.0571573992272393 -.14645 -.0
1959560683374215 .0522058077442276 .001464500000000026 -.02608283869249765 .0511
251045737227 260208521396522e-31 -.026019207582616 -.055875209337657 -.145 -.019
7190976933428 -.0569452124767708 -.14645 -.0196560965944501 .0545843760876576 .0
014645 -.0261708663755391 .0534822194809699 -455364912443912e-32 -.0261068728662
868 -.0556421970227683 -.145 -.0197708818512051 -.0567334411878057 -.14645 -.019
7075219410543 .0561700665322488 .0014645 -.0262306068137915 .0550536061967119 -4
55364912443915e-32 -.0261663414913865 -.0554870210841612 -.145 -.019803438282966
9 -.0565924273569699 -.14645 -.01973980925088275 .0569631227501168 .001464499999
999938 -.0262512099453478 .0558395076124673 -617995238316737e-31 -.0261868915473
403 -.0554095159171836 -.145 -.01981873332877465 -.0565220061524801 -.14645 -.01
9755051746589 .0593457402942206 .001464499999999938 -.0261609654066959 .05820062
26718808 -617995238316738e-31 -.02609797893286295 -.055177359737997 -.145 -.0198
6169439494795 -.0563111395620958 -.14645 -.01979933154956885 .0609193612362578 .
001464499999999972 -.0259391664574886 .0597600516478692 -27972416050126e-30 -.02
587864527406085 -.055023075915364 -.145 -.0198864488950787 -.0561709071909964 -.
14645 -.0198265269312889 .0639517938966406 .001464499999999972 -.025107443073911
5 .0627652341654081 -27972416050126e-30 -.0250556586862979 -.0547159273427616 -.
145 -.01992849159584095 -.0558907389578433 -.14645 -.0198772199249364 .065442910
1457063 .0014645 -.0244819300511487 .0642429692243532 520417042793042e-32 -.0244
365730393952 -.0545630625927922 -.145 -.0199457797964725 -.0557511229109636 -.14
645 -.01990087186404325 .0681320660789468 .0014645 -.0228273649630229 .066908274
6125173 520417042793042e-32 -.02279882609922315 -.0542591973111976 -.145 -.01997
319602003995 -.0554708720304347 -.14645 -.0199449397192481 .069364746858722 .001
4645 -.02177721208676395 .0681301396606755 -1301042606982604e-33 -.0217592749822
77 -.0541081967795725 -.145 -.0199833240429759 -.0553305801439749 -.14645 -.0199
6556453358285 .0713942310056644 .0014645 -.0193589252791032 .070142327595637 -13
01042606982604e-33 -.01936530265521835 -.0538085050803472 -.145 -.01999672603295
59 -.0550480134071071 -.14645 -.0200030402667333 .072212760695433 .0014645 -.017
96591233302795 .0709541595633247 -260208521396521e-32 -.01798625119594885 -.0536
598139127471 -.145 -.02 -.0549059536475078 -.14645 -.0200201374880405 .072765713
2171886 .0014645 -.01648243775854115 .0715030561005728 -260208521396521e-32 -.01
651760989856565 -.0535125 -.145 -.02 -.0547626555610056 -.14645 -.02003482390101
435 .0747801900842221 .0014645 -.0110779498584801 .0735027564964956 -26020852139
6521e-32 -.01116716152705682 -.0529758165457329 -.145 -.02 -.0542406022761551 -.
14645 -.0200883283847294 .0767946669512556 .0014645 -.00567346195841901 .0755024
568924183 -260208521396521e-32 -.00581671315554798 -.0524391330914658 -.145 -.02
 -.0537185489913046 -.14645 -.0201418328684445 .0788091438182892 .0014645 -.0002
689740583579225 .0775021572883411 -260208521396521e-32 -.000466264784039145 -.05
19024496371988 -.145 -.02 -.0531964957064541 -.14645 -.02019533735215955 127 20
 202 4 2 2 2 2 2 2 2 2 2 2 2 1 2 2 2 2 2 3 4 127 4 203 2 1 1 2 128 20 204 0 .062
5 .125 .140625 .15625 .1875 .25 .375 .5 .625 .75 .8125 .84375 .859375 .875 .9062
5 .9375 .96875 1 1.113847752958854 128 4 205 -.0101 0 1 1.01 124 199 61 0 1 132
 140 206 +207 208 141 200 136 200 200 140 60 132 60 0 1 119 199 209 +VF199 -.005
 ?141 206 132 206 206 199 126 207 FF3 1 12 2 6 5 5 2 FFF9 3 210 211 212 213 214
 125 208 0 1 .01071401365808072 1 -.473456564467555 1 .01071401365808072 1 1 BBB
BBBBB????0 0 0 0 45 72 210 .0691735709616341 -.001553531980421705 -.017751378427
6263 -.10418418881214 -.145 -.02 .0693611822111672 -.001553531980421705 -.017524
65734418645 -.0945822314438215 -.145 -.02 .0695487934607004 -.001553531980421705
 -.0172979362607466 -.084980274075503 -.145 -.02 .0697364047102335 -.00155353198
0421705 -.01707121517730675 -.0753783167071846 -.145 -.02 .0698788157151686 -.00
1553531980421705 -.01689911687609625 -.0680897111381231 -.145 -.02 .070021226720
1036 -.001553531980421705 -.0167270185748857 -.0608011055690615 -.145 -.02 .0701
636377250387 -.001553531980421705 -.0165549202736752 -.0535125 -.145 -.02 .07051
21620451517 -.001553531980421705 -.0161337418440352 -.035675 -.145 -.02 .0708389
90217493 -.0015535319804217 -.0157063888261846 -.0178375 -.145 -.02 .07144961829
90877 -.0015535319804217 -.0148394372154265 .0178375 -.145 -.02 .071733345473248
 -.00155353198042172 -.0143998179225657 .035675 -.145 -.02 .0719946779376791 -.0
0155353198042172 -.01395382523512206 .0535125 -.145 -.02 127 5 211 4 3 3 2 4 127
 2 212 2 2 128 5 213 -.473456564467555 -.2043056921951385 0 .5 1 128 2 214 .0107
1401365808072 1 124 119 57 0 1 114 132 215 +216 217 141 209 125 209 209 132 141
 215 114 215 215 119 126 216 FF3 1 22 3 6 5 11 3 FFF9 3 218 219 220 221 222 125
 217 0 1 0 1 0 1 0 1.01 1 BBBBBBBB????0 0 0 0 45 198 218 .0721948407920905 -1691
355389077385e-32 -.01388834487867874 .0535125 -.145 -.02 .0533256765920791 -.146
45 -.0200611165512132 .0722846559092764 -1691355389077385e-32 -.0133179066156211
 .0538071278254944 -.145 -.02 .0536223525446566 -.14645 -.0200668209338438 .0723
381210236034 -260208521396522e-32 -.01273546105405316 .0541072646704004 -.145 -.
01998690413182365 .0539249561068684 -.14645 -.02005941856260135 .072368646923916
7 -260208521396521e-32 -.0115767815959375 .0547149952335895 -.145 -.019932071684
68875 .0545384587166863 -.14645 -.02001562458557625 .0723524951356145 1301042606
982604e-33 -.01099738935954422 .0550225889518727 -.145 -.0198903351057302 .05484
92898900353 -.14645 -.01997926456319205 .0723407924172564 1301042606982604e-33 -
.00925927407960525 .055951213668619 -.145 -.01971849084103685 .0557873178811327
 -.14645 -.0198230830086512 .0723339565947621 1301042606982604e-33 -.00810053217
422403 .0565779623436993 -.145 -.0195415478112447 .0564204024011887 -.14645 -.01
96559579676149 .0723227569191983 1301042606982604e-33 -.00578305249516959 .05780
89318475382 -.145 -.01905421821000395 .0576637935968216 -.14645 -.01918692986715
225 .0723184295894454 1301042606982604e-33 -.00462431478254234 .0584129031661004
 -.145 -.01874371665546315 .058273847901867 -.14645 -.01888491067419235 .0723125
794621074 1301042606982604e-33 -.00230684404484911 .0595562919016025 -.145 -.017
99619356890985 .0594287290259974 -.14645 -.01815308706415045 .0723110566645224 1
301042606982606e-33 -.001148111019783132 .0600954124471764 -.145 -.0175592231765
5455 .059973256005003 -.14645 -.01772333429812225 .0723110751176299 130104260698
2604e-33 .001169349909026196 .0610717231765546 -.145 -.01658291244717635 .060959
3296571439 -.14645 -.0167604350707384 .0723126160761097 975781955236955e-33 .002
328079415550965 .0615086935689099 -.145 -.0160437919016024 .0614006543438379 -.1
4645 -.01622751061477395 .072318500755515 3252606517456525e-34 .0046455307226570
5 .0622562166554632 -.145 -.01490040316610036 .0621555938144627 -.14645 -.015095
86250498795 .0723228444764406 288889491658086e-48 .00580425252323837 .0625667182
10004 -.145 -.0142964318475381 .0624691569473396 -.14645 -.01449743869124584 .07
23340739793317 -2888894916580855e-49 .0081216826282739 .0630540478112447 -.145 -
.01306546234369926 .0629612475495638 -.14645 -.013277333793419 .0723409230081693
 -2602085213965215e-33 .00928039098153204 .0632309908410369 -.145 -.012438713668
61894 .0631398915193656 -.14645 -.01265590471512044 .0723526428616714 -260208521
396521e-32 .0110184456613135 .0634028351057302 -.145 -.0115100889518726 .0633133
370281708 -.14645 -.01173537429800446 .0723689166103728 -1301042606982604e-33 .0
1159948944577058 .0634445716846888 -.145 -.01120249523358942 .0633553282354319 -
.14645 -.01143051508038302 .0723367425897463 -1301042606982604e-33 .012753646586
38866 .0634994041318237 -.145 -.0105947646704003 .0634110307472445 -.14645 -.010
82824878296818 .0722836699706643 -1301042606982606e-33 .01332416196954556 .06351
25 -.145 -.01029462782549432 .0634247883002934 -.14645 -.01053081572344472 .0721
948417151845 -1301042606982604e-33 .01388833242716972 .0635125 -.145 -.01 .06342
56765828482 -.14645 -.01023888332427162 127 11 219 4 2 2 2 2 2 2 2 2 2 4 127 3 2
20 2 1 2 128 11 221 0 .0625 .125 .25 .375 .5 .625 .75 .875 .9375 1 128 3 222 0 1
 1.01 16 163 72 0 ?33 25 223 146 0 0 1 17 33 0 32 30 40 31 224 163 0 34 +16 223
 67 0 ?40 163 225 138 0 0 1 133 146 73 0 163 144 152 0 +152 -.0585035455413156 -
.145 .0100459956342212 -.0535312668852574 -.145 .01499556085640464 0 .0077417512
1176694 17 40 0 32 33 43 36 226 223 0 224 +16 225 62 0 ?43 223 99 131 0 0 1 133
 138 68 0 223 136 144 0 +144 -.0585049169681826 -.145 -.01002365608610504 -.0585
035446518092 -.145 .01004599563418292 0 .02006965176907775 17 43 0 32 40 46 41 2
27 225 0 226 +16 99 58 0 ?46 225 96 125 0 0 1 133 131 63 0 225 125 136 0 +136 -.
0534376843429729 -.145 -.0149985587943443 -.0585050434154437 -.145 -.01002365607
46294 0 .00774244011546686 17 46 0 32 43 49 44 228 99 0 227 +15 32 22 0 28 12 0
 17 49 0 32 46 28 47 98 96 0 228 +17 228 0 0 0 0 47 46 99 0 0 -17 227 0 0 0 0 44
 43 225 0 0 -17 98 0 0 0 0 50 49 96 0 0 -14 255 12 1 229 ?0 0 75 4 104 +0 0 0 0
 4 81 255 1 229 143 230 12 0 0 0 0 231 50 104 2 0 12 0 107 232 +.0535125 -.145 -
.01 0 -1 0 0 0 -1 141 232 86 233 234 104 137 86 7 0 1 78 81 235 +104 236 0 ?141
 233 101 237 232 104 141 234 238 232 239 104 137 238 9 0 1 81 240 241 +104 242 0
 ?141 239 243 234 244 104 137 243 11 0 1 240 245 246 +104 247 0 ?141 244 248 239
 249 104 137 248 13 0 1 245 250 251 +104 252 0 ?141 249 253 244 254 104 137 253
 15 0 1 250 255 256 +104 257 0 ?141 254 258 249 237 104 137 258 17 0 1 255 259 2
60 +104 261 0 ?141 237 262 254 233 104 137 262 19 0 1 259 85 263 +104 264 0 ?133
 259 18 0 57 258 262 0 +262 -.0635125 -.145 -.01 -.0535125 -.145 -.02 0 1 133 85
 20 0 76 262 101 0 +101 -.0535125 -.145 -.02 .0535125 -.145 -.02 0 1 141 263 259
 263 263 262 134 255 264 0 0 0 0 0 0 +265 266 136 255 265 2 9 2 5 5 FFF1 267 268
 269 135 255 266 2 0 45 18 267 -711236625150491e-31 -.117025 .001988797812989655
 -.117025 .00382683432365087 -.116263795325113 .00566401355713985 -.115502945683
1032 .00707106781186548 -.1140960678118654 .00847723555072595 -.1126900763453622
 .00923879532511288 -.110851834323651 .01 -.109014449436001 .01 -.107025 127 5 2
68 3 2 2 2 3 128 5 269 0 .25 .5 .75 1 17 57 0 75 76 60 55 95 94 259 83 -17 60 0
 75 57 63 58 93 92 255 95 -17 63 0 75 60 66 61 91 90 250 93 -133 255 16 0 60 253
 258 0 +258 -.0635125 -.145 .01 -.0635125 -.145 -.01 0 1 17 66 0 75 63 69 64 89
 88 245 91 -133 250 14 0 63 248 253 0 +253 -.0535125 -.145 .02 -.0635125 -.145 .
01 0 1 17 69 0 75 66 72 67 82 87 240 89 -133 245 12 0 66 243 248 0 +248 .0535125
 -.145 .02 -.0535125 -.145 .02 0 1 133 240 10 0 69 238 243 0 +243 .0635125 -.145
 .01 .0535125 -.145 .02 0 1 141 260 255 260 260 258 134 261 0 0 0 0 0 0 +270 271
 136 270 1 2 2 2 5 FFF1 272 273 274 135 271 2 0 45 4 272 -.02 -.117025 -71123662
5150491e-31 -.117025 127 2 273 2 2 128 2 274 0 1 141 256 250 256 256 253 134 257
 0 0 0 0 0 0 +275 276 136 275 2 9 2 5 5 FFF1 277 278 279 135 276 2 0 45 18 277 -
.03 -.107025 -.03 -.109013797812973 -.02923879532511285 -.110851834323651 -.0284
7794568308375 -.1126890135572034 -.02707106781186545 -.1140960678118654 -.025665
07634530595 -.1155022355507382 -.02382683432365085 -.116263795325113 -.021989449
43602745 -.117025 -.02 -.117025 127 5 278 3 2 2 2 3 128 5 279 0 .25 .5 .75 1 141
 251 245 251 251 248 134 252 0 0 0 0 0 0 +280 281 136 280 1 2 2 2 5 FFF1 282 283
 284 135 281 2 0 45 4 282 -.03 -693889390390723e-31 -.03 -.107025 127 2 283 2 2
 128 2 284 0 1 141 246 240 246 246 243 134 247 0 0 0 0 0 0 +285 286 136 285 2 9
 2 5 5 FFF1 287 288 289 135 286 2 0 45 18 287 -.02 .01 -.0219887978129896 .01 -.
02382683432365085 .00923879532511288 -.02566401355713985 .00847794568310319 -.02
70710678118655 .00707106781186548 -.02847723555070715 .00566507634538112 -.02923
87953251129 .003826834323650865 -.03 .00198944943602743 -.03 -693889390390723e-3
1 127 5 288 3 2 2 2 3 128 5 289 0 .25 .5 .75 1 133 81 8 0 72 86 238 0 +238 .0635
125 -.145 -.01 .0635125 -.145 .01 0 1 141 241 81 241 241 238 134 242 0 0 0 0 0 0
 +290 291 136 290 1 2 2 2 5 FFF1 292 293 294 135 291 2 0 45 4 292 -7112366251504
91e-31 .01 -.02 .01 127 2 293 2 2 128 2 294 0 1 141 235 78 235 235 86 134 236 0
 0 0 0 0 0 +295 296 136 295 2 9 2 5 5 FFF1 297 298 299 135 296 2 0 45 18 297 .01
 0 .01 .00198879781299513 .00923879532511286 .00382683432365092 .008477945683083
73 .00566401355718134 .00707106781186545 .0070710678118655 .0056650763453079 .00
847723555075836 .00382683432365085 .00923879532511288 .00198944943597701 .01 -72
8583859910259e-31 .01 127 5 298 3 2 2 2 3 128 5 299 0 .25 .5 .75 1 80 255 1 230
 300 301 9000 1 1 1 1 1 1 1 1 0 FFFFTFTFFFFFFF1 82 255 1 231 -532609947 79 255 1
4 301 SWEntUnchanged17 226 0 0 0 0 41 40 223 0 0 -17 224 0 0 0 0 36 33 163 0 0 -
17 34 0 0 0 0 31 30 25 0 0 -141 154 146 154 154 152 40 6 156 0 1 6 .000280561345
6797425 .338313964130968 ??-.0585035455413156 -.145 .0100459956342212 -.05822458
91954344 -.145 .0116708414761299 -.0574247751047336 -.145 .0131119197529317 -.05
61869491283494 -.145 .01422074394706746 -.0546384393429934 -.145 .01486698273518
676 -.0535312668852574 -.145 .01499556085640464 41 1 157 L?-.0585035455413156 -.
145 .0100459956342212 41 1 158 L?-.0535312668852574 -.145 .01499556085640464 141
 147 138 147 147 144 40 4 149 0 1 4 573041574027046e-22 172871788445147e-19 ??-.
0585049169681826 -.145 -.01002365608610504 -.0585043364995533 -.145 -.0031252054
4883251 -.0585038848460661 -.145 .00346039508839778 -.0585035446518092 -.145 .01
00459956341829 41 1 150 L?-.0585049169681826 -.145 -.01002365608610504 41 1 151
 L?-.0585035446518092 -.145 .0100459956341829 141 139 131 139 139 136 40 6 141 0
 1 6 .0003449755959320655 .36463169056396 ??-.0534376843429729 -.145 -.014998558
7943443 -.0548618076866106 -.145 -.0147374543984874 -.0566037515519388 -.145 -.0
1372906529780036 -.0573312132849316 -.145 -.01302359624213076 -.0582645776422711
 -.145 -.0114788639424094 -.0585050434154437 -.145 -.0100236560746294 41 1 142 L
?-.0534376843429729 -.145 -.0149985587943443 41 1 143 L?-.0585050434154437 -.145
 -.0100236560746294 40 3 133 0 1 3 239495767733645e-21 883607868309297e-20 ??.05
35312275369928 -.145 -.01499556085785072 467716053527554e-19 -.145 -.01499728684
832172 -.0534376843429729 -.145 -.0149985587943443 41 1 134 L?.0535312275369928
 -.145 -.01499556085785072 41 1 135 L?-.0534376843429729 -.145 -.014998558794344
3 141 126 100 126 126 111 40 6 127 0 1 6 .0002805611002590325 .338347004303626 ?
?.0585035455074169 -.145 -.0100460497159609 .0582245593157328 -.145 -.0116709328
8418222 .0574246878326736 -.145 -.0131120208533233 .0561868338526752 -.145 -.014
22080353388234 .054638299093651 -.145 -.01486700334090182 .0535312275369928 -.14
5 -.01499556085785072 41 1 128 L?.0585035455074169 -.145 -.0100460497159609 41 1
 129 L?.0535312275369928 -.145 -.01499556085785072 141 120 111 120 120 114 141 1
16 107 116 116 112 126 117 FF3 1 9 3 6 5 4 3 FFF9 3 302 303 304 305 306 125 118
 0 1 0 1 -.0116063557580978 1 0 1.01 1 BBBBBBBB????0 0 0 0 45 81 302 .0721997347
720382 -1301042606982604e-33 .0138572553998266 .0635125 -.145 -.0102321271151618
8 .0634256276522796 -.14645 -.01047302094031176 .072198103753087 -13010426069826
04e-33 .01386761440894098 .0635125 -.145 -.0101547514101079 .0634256439624691 -.
14645 -.01039497506829838 .0721964727341357 -1301042606982604e-33 .0138779734180
5534 .0635125 -.145 -.0100773757050539 .0634256602726587 -.14645 -.0103169291962
85 .0721948417151845 -1301042606982604e-33 .01388833242716972 .0635125 -.145 -.0
1 .0634256765828482 -.14645 -.01023888332427162 .0721245776725659 -1301042606982
606e-33 .01433459692785682 .0635125 -.145 -.00666666666666661 .0634263792232744
 -.14645 -.00687667930261185 .0720317633836195 520417042793042e-32 .014776859831
9257 .0635125 -.145 -.003333333333333305 .0634273073661638 -.14645 -.00351443526
4985895 .0718012927467801 520417042793042e-32 .01565342830652325 .0635125 -.145
 .003333333333333315 .0634296120725322 -.14645 .003210132383601415 .071663144421
5684 866668474974256e-48 .0160892609791659 .0635125 -.145 .00666666666666663 .06
34309935557843 -.14645 .00657244072354163 .071503058289606 0 .01651759143572815
 .0635125 -.145 .01 .063432594417104 -.14645 .00993482408564265 127 4 303 4 3 2
 4 127 3 304 2 1 2 128 4 305 -.0116063557580978 0 .5 1 128 3 306 0 1 1.01 141 11
3 102 113 113 107 141 103 85 103 103 101 134 105 0 0 0 0 0 0 +307 308 136 307 1
 2 2 2 5 FFF1 309 310 311 135 308 2 0 45 4 309 .01 -.107025 .01 -693889390390723
e-31 127 2 310 2 2 128 2 311 0 1 17 24 0 32 28 30 10 35 9 0 0 +17 35 0 0 0 0 27
 24 9 0 0 -141 18 17 18 18 6 40 6 20 0 1 6 .000347964502256471 .3875017493698585
 ??.0534376358122684 -.145 .0149985587933854 .0549888624037634 -.145 .0146882455
0816512 .0567409793931681 -.145 .01361214231166772 .057452682428359 -.145 .01287
757704699354 .0583094356403103 -.145 .01134767065299142 .0585047786415526 -.145
 .00998808976810153 41 1 21 L?.0534376358122684 -.145 .0149985587933854 41 1 22
 L?.0585047786415526 -.145 .00998808976810153 141 14 13 14 14 5 126 15 FF3 1 46
 4 6 5 22 4 FFF9 3 312 313 314 315 316 125 16 0 1 0 1 -.01 1.113879686731572 -.0
1046613202645666 1.01 1 BBBBBBBB????0 0 0 0 45 552 312 .0721355119176186 .001517
589143836215 .01511883996086145 .0720461971169192 0 .01506435561181355 .0635125
 -.145 .00985857864376262 .0634271630288308 -.14645 .00980652087408211 .07195257
07876225 .001517589143836215 .01560782844330395 .0718651508411481 0 .01554876755
31184 .0635125 -.145 .00990571909584173 .0634289734915885 -.14645 .0098492886112
6896 .0717696296576263 .001517589143836215 .01609681692574645 .071684104565377 0
 .01603317949442325 .0635125 -.145 .00995285954792083 .0634307839543463 -.14645
 .00989205634845581 .0715866885276301 .001517589143836215 .01658580540818895 .07
1503058289606 0 .01651759143572815 .0635125 -.145 .01 .063432594417104 -.14645 .
00993482408564265 .071014997496392 .001517589143836215 .0181138944158218 .070937
2886778214 0 .01803137875230585 .0635125 -.145 .01014731391274712 .0634382521132
218 -.14645 .01006847326435154 .0701836138798332 .001517589143836215 .0195118106
6696735 .0701144823946828 0 .01941635587145995 .0635092260329559 -.145 .01029600
508034722 .0634431734693387 -.14645 .0102048015724361 .0680694673980631 .0015175
89143836215 .02198663730800995 .0680220948502071 269630192214212e-46 .0218686530
592583 .0634958240429759 -.145 .01059569677957244 .0634505613349036 -.14645 .010
4829672167756 .0668147252265693 .001517589143836195 .02302846450268595 .06678024
40519004 -221177243187043e-31 .022901253314829 .06348569602004 -.145 .0107466973
111976 .0634527505397213 -.14645 .01062515175116128 .0640212927671931 .001517589
143836195 .02469059403032 .0640154612327186 -2211772431870425e-32 .0245493143126
2785 .0634582797964725 -.145 .01105056259279216 .06345270798211 -.14645 .0109155
750755938 .0625143719551114 .00151758914383621 .02529352674272785 .0625239696280
969 -585469173142175e-32 .0251475853440882 .063440991595841 -.145 .0112034273427
616 .0634501618155184 -.14645 .01106398576274832 .0593528327364817 .001517589143
83621 .0260983669362308 .0593947413018141 -585469173142172e-32 .0259472705838052
5 .0633989488950787 -.145 .01151057591536402 .0634389909710114 -.14645 .01136620
89686796 .0577888143092193 .001517589143836215 .02628305682433935 .0578466661496
149 -1301042606982604e-33 .02613164553419785 .063374194394948 -.145 .01166485973
7997 .0634294696774013 -.14645 .011520191880035 .0554196329868196 .0015175891438
36215 .0263352198845882 .0555015791808532 -1301042606982604e-33 .026185672913978
95 .0633312333287747 -.145 .0118970159171836 .0634095298702539 -.14645 .01175412
934721564 .0546273770137755 .001517589143836215 .0263019006378814 .0547173707567
434 -195156391047391e-32 .02615350155625985 .0633159382829669 -.145 .01197452108
416114 .0634019239582292 -.14645 .01183273127944016 .0530431532779329 .001517589
143836215 .02624060504206275 .0531492187667524 -195156391047391e-32 .02609444811
34313 .0632833818512051 -.145 .01212969702276828 .0633847234820497 -.14645 .0119
9004951186164 .052251087583793 .00151758914383623 .026210481073524 .052365178283
876 1561251128379125e-32 .02606544065334995 .063266120465251 -.145 .012207367794
39784 .0633751298870648 -.14645 .01206878706580832 .0498748236328707 .0015175891
4383623 .02612180960720715 .0500129598456393 1561251128379125e-32 .0259801025238
2665 .0632113613581995 -.145 .0124405176014966 .0633433453733251 -.14645 .012305
1217522733 .0482906101564377 .001517589143836225 .02606496785291605 .04844473601
45588 715573433840433e-32 .0259254613543535 .0631708886879127 -.145 .01259613412
917576 .0633181502146463 -.14645 .01246284085692398 .0435378251429648 .001517589
143836225 .0259022535097978 .0437397960719449 715573433840431e-32 .0257692643681
4525 .0630373673685377 -.145 .01306264636290906 .0632303430815036 -.14645 .01293
55801828567 .040369179644009 .00151758914383621 .02580429188672135 .040602881401
8113 -585469173142171e-32 .0256755340833678 .0629322154109345 -.145 .01337320471
9659 .0631555087510258 -.14645 .0132501814260219 .03086310092452855 .00151758914
383621 .0255473638816351 .0311914783275006 -585469173142171e-32 .025430829802602
3 .062566718210004 -.145 .0142964318475381 .062880470608829 -.14645 .01418508786
798746 .024525112251469 .00151758914383621 .0254295609920291 .02491592071865065
 -44723339615027e-31 .0253205028529774 .0622562166554632 -.145 .0149004031661003
8 .0626296196148313 -.14645 .0147962021692316 .01184939491727882 .00151758914383
6215 .0252773605647036 .01236375236039954 -170761842166467e-32 .0251817217841048
5 .0615086935689099 -.145 .01604379190160245 .062000142980995 -.14645 .015952412
6027774 .00551166572091376 .001517589143836215 .025242966134079 .006087141610998
34 -3252606517456555e-34 .02515326766485715 .0610717231765546 -.145 .01658291244
71764 .0616215689922102 -.14645 .0164972088949996 -.00716224481545187 .001517589
143836215 .02523397964190305 -.00646560838362102 -3252606517456525e-34 .02515448
661201185 .0600954124471764 -.145 .0175592231765546 .0607610226554844 -.14645 .0
174832705422 -.01349892696296322 .001517589143836215 .02525968380572555 -.012742
2409725829 -4065758146820645e-34 .0251844505590269 .0595562919016025 -.145 .0179
961935689099 .0602792772303443 -.14645 .0179243109990087 -.0261705161733939 .001
517589143836215 .02539550387316205 -.02529442423325045 -56920614055489e-32 .0253
2660647915175 .0584129031661004 -.145 .0187437166554632 .0592499764400939 -.1464
5 .0186778877572263 -.0325054263434081 .001517589143836215 .02550562031201045 -.
03156997490495615 -650521303491304e-33 .0254387984522615 .0578089318475381 -.145
 .01905421821000395 .0587027209150631 -.14645 .01899037240758135 -.0420055805541
808 .001517589143836215 .02575198465507895 -.04098129164915205 -650521303491305e
-33 .02568639674091165 .056885704719659 -.145 .0194197154109345 .057864374683347
1 -.14645 .01935704859763475 -.045171991703405 .001517589143836205 .025846528039
51985 -.04411812265568095 -780625564189563e-32 .025781050006054 .056575146362909
1 -.145 .01952486736853765 .057582079053095 -.14645 .0194623055421625 -.04992124
76641478 .00151758914383621 .0260042098435376 -.04882301912741 -780625564189564e
-32 .0259384815623751 .0561086341291758 -.145 .0196583886879127 .057157950661741
6 -.14645 .0195955877591681 -.0515042733828316 .00151758914383623 .0260593916971
6895 -.0503912601318166 1235990476633476e-32 .0259935110623055 .0559530176014966
 -.145 .01969886135819945 .0570164603788297 -.14645 .0196359148611584 -.05467022
68468985 .00151758914383623 .02617433264166575 -.0535276413844917 12359904766334
74e-32 .02610801771973315 .0556421511920316 -.145 .0197718735009349 .05673384911
77969 -.14645 .0197085120587469 -.056252008854787 .0015175891438362 .02628466778
818285 -.0550946477625015 -1496198998029996e-32 .0262175470799205 .0554869013102
458 -.145 .01980441297338355 .0565927168009733 -.14645 .0197402816323182 -.05942
3426375359 .0015175891438362 .02615918672538795 -.0582364227541761 -149619899802
9996e-32 .026093959020988 .055177359737997 -.145 .019861694394948 .0563114975629
188 -.14645 .0197993717486876 -.060993308309474 .00151758914383622 .025935184998
1007 -.0597916423099474 195156391047391e-32 .0258725338427171 .0550230759153641
 -.145 .01988644889507875 .0561712230976172 -.14645 .01982658804560235 -.0640192
864555119 .00151758914383622 .0251000019458572 -.0627894595623432 19515639104739
1e-32 .02504643685506995 .0547159273427616 -.145 .019928491595841 .0558909812118
127 -.14645 .0198773121432487 -.0655069539386311 .001517589143836215 .0244732616
441831 -.0642633015235655 -128395329625815e-48 .0244263672246042 .05456306259279
22 -.145 .0199457797964725 .0557513262339558 -.14645 .01990097392219115 -.068189
2248335642 .001517589143836215 .0228181965456911 -.0669209375431943 500741785540
681e-47 .0227887288078095 .0542591973111976 -.145 .01997319602003995 .0554709986
597415 -.14645 .01994504069216225 -.0694187610295145 .00151758914383623 .0217685
1430312855 -.0681393025615066 1561251128379125e-32 .0217500237903217 .0541081967
795725 -.145 .0199833240429759 .0553306717729833 -.14645 .01996565704550245 -.07
14429396465982 .00151758914383623 .0193530588187841 -.0701456194144122 156125112
8379125e-32 .01935972574786875 .0538085050803472 -.145 .0199967260329559 .055048
0463252948 -.14645 .0200030960358068 -.0722595306952398 .00151758914383621 .0179
62111890839 -.0709552925386287 -780625564189563e-32 .01798321977890135 .05365981
39127471 -.145 .02 .0549059649772609 -.14645 .020020167802211 -.0728114854160824
 .001517589143836205 .01648116274399615 -.0715030561005729 -780625564189563e-32
 .0165176098985654 .0535125 -.145 .02 .0547626555610057 -.14645 .020034823901014
35 -.0748228911984685 .001517589143836205 .01108436194694484 -.0734991886713623
 -780625564189563e-32 .01117670768917792 .0529756660084846 -.145 .02 .0542404145
552831 -.14645 .0200882329231082 -.0768342969808546 .001517589143836205 .0056875
6114989354 -.0754953212421518 -780625564189562e-32 .00583580547979047 .052438832
0169693 -.145 .02 .0537181735495606 -.14645 .0201416419452021 -.0788457027632407
 .001517589143836205 .000290760352842248 -.0774914538129412 -780625564189561e-32
 .000494903270403016 .051901998025454 -.145 .02 .053195932543838 -.14645 .020195
05096729595 127 22 313 4 3 2 2 2 2 2 2 2 2 2 2 2 2 2 2 2 2 2 2 3 4 127 4 314 2 1
 1 2 128 22 315 -.01 0 .03125 .0625 .09375 .125 .140625 .15625 .1875 .25 .375 .5
 .625 .75 .8125 .84375 .875 .90625 .9375 .96875 1 1.113879686731572 128 4 316 -.
01046613202645666 0 1 1.01 74 4 CI16 index_map_offset0 0 1 dCCZ20 11 1 0 0 229 0
 0 0 0 0 0 0 0 0 0 0 0 0 0 0 0 0 0 0 1 0 
