**ABCDEFGHIJKLMNOPQRSTUVWXYZabcdefghijklmnopqrstuvwxyz**************************
**PARASOLID !"#$%&'()*+,-./:;<=>?@[\]^_`{|}~0123456789**************************
**PART1;
MC=AMD64;
MC_MODEL=AMD64 Family 21 Model 19 Stepping 1, AuthenticAMD;
MC_ID=unknown;
OS=Windows_NT;
OS_RELEASE=unknown;
FRU=Parasolid Version 28.0, build 209,  1-25-2016;
APPL=SOLIDWORKS 2016-2016195;
SITE=;
USER=unknown;
FORMAT=text;
GUISE=transmit;
KEY=makeProjectedPlanarWire;
FILE=makeProjectedPlanarWire.x_t;
DATE=Sat Nov 12 21:21:14 2022;
**PART2;
SCH=SCH_2800209_28002;
USFLD_SIZE=0;
**PART3;
**END_OF_HEADER*****************************************************************
T51 : TRANSMIT FILE created by modeller version 280020923 SCH_2800209_28002_1300
6200 0 12 30 CCCCCCCCCCCCCDI5 owner1040 0 CCCCCCCCCA13 boundary_mesh1006 0 A16 i
ndex_map_offset0 0 1 dA9 index_map82 0 A17 node_id_index_map82 0 A20 schema_embe
dding_map82 0 A5 child12 0 A14 lowest_node_id0 0 1 dZ1 160 0 2 0 0 0 0 1e3 1e-8
 0 3 0 1 0 3 1 4 5 6 7 8 9 10 0 0 0 0 0 0 0 70 11 CI9 list_type0 0 1 uI10 notran
smit0 0 1 lCCCDCCDI12 finger_index0 0 1 dI12 finger_block1012 0 CZ2 0 4 T1 0 0 1
 20 1 11 11 13 255 4 141 0 1 0 12 0 0 8 12 124 255 5 87 0 1 13 0 14 +15 16 38 25
5 6 85 0 1 17 0 18 +13 19 20 21 22 29 255 7 135 0 10 23 0 .0585032934676368 -.14
5 .01002840411517816 19 8 CCCCCCCA5 owner12 0 Z8 140 0 1 0 0 4 V0 16 255 9 83 0
 ?24 0 25 17 0 0 1 18 255 10 133 0 26 0 27 7 4995004995005e-17 1 17 255 26 0 0 0
 0 10 28 29 0 24 -18 27 130 0 30 10 31 23 4995004995005e-17 1 17 30 0 32 24 33 2
7 34 25 0 35 +18 31 127 0 33 27 36 37 4995004995005e-17 1 29 23 132 0 27 37 7 .0
536666049388552 -.145 .0149955286533501 29 37 129 0 31 38 23 -.0535038039644993
 -.145 .0149960085158455 29 38 126 0 36 39 37 -.0585032924045292 -.145 .01001296
15150038 18 36 124 0 40 31 41 38 4995004995005e-17 1 29 39 123 0 41 42 38 -.0585
033025127675 -.145 -.0100231719428014 18 41 121 0 43 36 44 39 4995004995005e-17
 1 29 42 120 0 44 45 39 -.0536721050438946 -.145 -.0149954704631021 18 44 118 0
 46 41 47 42 4995004995005e-17 1 29 45 117 0 47 48 42 .0535053181953932 -.145 -.
01499572148388238 18 47 115 0 49 44 50 45 4995004995005e-17 1 29 48 114 0 50 51
 45 .0585032734610418 -.145 -.01000768815450342 18 50 112 0 28 47 52 48 49950049
95005e-17 1 29 51 111 0 52 53 48 .0535125 -.145 -.02 18 52 109 0 54 50 55 51 196
9821500635705e-20 1 29 53 108 0 55 56 51 -.0535125 -.145 -.02 18 55 106 0 57 52
 58 53 1969821500635705e-20 1 29 56 105 0 58 59 53 -.0635125 -.145 -.01 18 58 10
3 0 60 55 61 56 1969821500635705e-20 1 29 59 102 0 61 62 56 -.0635125 -.145 .01
 18 61 100 0 63 58 64 59 1969821500635705e-20 1 29 62 99 0 64 65 59 -.0535125 -.
145 .02 18 64 97 0 66 61 67 62 1969821500635705e-20 1 29 65 96 0 67 68 62 .05351
25 -.145 .02 18 67 94 0 69 64 70 65 1969821500635705e-20 1 29 68 93 0 70 71 65 .
0635125 -.145 .01 18 70 91 0 72 67 73 68 1969821500635705e-20 1 29 71 90 0 73 0
 68 .0635125 -.145 -.01 18 73 88 0 74 70 0 71 1969821500635705e-20 1 17 74 0 75
 72 76 73 54 77 78 79 -15 255 75 5 0 74 12 32 17 72 0 75 69 74 70 79 80 81 82 -1
7 76 0 75 74 57 52 83 84 85 0 -17 54 0 0 0 0 52 74 77 0 76 +16 77 23 0 196982150
0635705e-20 54 80 0 0 0 0 1 133 255 78 6 0 74 0 86 0 +86 .0535125 -.145 -.02 .06
35125 -.145 -.01 0 1 17 79 0 0 0 0 73 72 80 0 0 +16 80 26 0 1969821500635705e-20
 79 87 77 0 0 0 1 16 87 29 0 1969821500635705e-20 82 88 80 0 0 0 1 17 82 0 0 0 0
 70 69 87 0 0 +16 88 32 0 1969821500635705e-20 89 90 87 0 0 0 1 17 89 0 0 0 0 67
 66 88 0 0 +16 90 35 0 1969821500635705e-20 91 92 88 0 0 0 1 17 91 0 0 0 0 64 63
 90 0 0 +16 92 38 0 1969821500635705e-20 93 94 90 0 0 0 1 17 93 0 0 0 0 61 60 92
 0 0 +16 94 41 0 1969821500635705e-20 95 84 92 0 0 0 1 17 95 0 0 0 0 58 57 94 0
 0 +16 84 44 0 1969821500635705e-20 83 29 94 0 0 0 1 17 83 0 0 0 0 55 76 84 0 0
 +16 29 47 0 ?28 96 84 97 0 0 1 17 28 0 32 49 24 50 26 29 0 98 +16 96 53 0 ?49 9
9 29 100 0 0 1 133 97 48 0 29 101 102 0 +102 .0585032934676368 -.145 .0100284041
1517816 .0585032734610418 -.145 -.01000768815450342 0 .02003609226969185 137 255
 101 21 0 1 85 97 103 +104 105 0 ?38 102 49 0 1 97 100 106 +107 19 108 109 110 1
33 100 54 0 96 102 111 0 +111 .0585032734610417 -.145 -.01000768815450346 .05350
53181954906 -.145 -.014995721199127 0 .0077983069220729 141 255 106 97 106 106 1
02 60 255 107 50 0 1 104 112 113 +UF112 -.005 ?50 255 19 52 0 1 112 114 115 +.05
35125 -.145 -.01 0 -1 0 0 0 -1 40 255 4 108 0 1 4 126950347456643e-23 2517453920
37106e-21 ??.0585032934676368 -.145 .01002840411517816 .0585032894337492 -.145 .
00501039032961012 .0585032847386409 -.145 -762345595744117e-20 .0585032734610417
 -.145 -.01000768815450342 41 3 CI8 term_use0 0 1 cCZ1 109 L?.0585032934676368 -
.145 .01002840411517816 41 1 110 L?.0585032734610417 -.145 -.01000768815450342 1
24 112 51 0 1 107 19 116 +117 118 60 114 56 0 1 19 119 120 +UF119 -.005 ?141 115
 102 121 122 19 141 121 6 123 115 19 141 122 111 115 124 19 38 111 55 0 1 100 12
5 126 +114 19 127 128 129 141 124 130 122 131 19 38 130 60 0 1 125 132 133 +134
 19 135 136 137 141 131 138 124 139 19 38 138 65 0 1 132 140 141 +142 19 143 144
 145 141 139 146 131 147 19 38 146 70 0 1 140 148 149 +150 19 151 152 153 141 14
7 154 139 123 19 38 154 75 0 1 148 155 156 +157 19 158 159 160 141 123 161 147 1
21 19 38 161 80 0 1 155 17 162 +163 19 164 165 166 133 155 79 0 25 154 161 0 +16
1 -.0535038039644993 -.145 .0149960085158455 .0536666049388482 -.145 .0149955254
5745996 0 .107170408904532 133 17 84 0 9 161 6 0 +6 .0536666049388552 -.145 .014
9955286533501 .0585032934587037 -.145 .0100284041151787 0 .00765344780960868 141
 162 155 162 162 161 60 163 81 0 1 167 168 169 +UF168 -.005 ?40 8 164 0 1 8 7280
81761210536e-23 803917525909781e-21 ??-.0535038039644993 -.145 .0149960085158455
 -.03539334552254935 -.145 .01499589126303704 -.01728288708051105 -.145 .0149957
8854239258 -.00822765785946316 -.145 .01499574264084204 .00988280058268561 -.145
 .01499566171622 .01893802980378205 -.145 .01499562667491002 .03630231737129115
 -.145 .01499556952868188 .0536666049388483 -.145 .01499552545745996 41 1 165 L?
-.0535038039644993 -.145 .0149960085158455 41 1 166 L?.0536666049388483 -.145 .0
1499552545745996 124 167 77 0 1 157 163 170 +171 172 124 168 82 0 1 163 13 173 +
174 175 141 169 161 169 169 163 60 13 86 0 1 168 5 176 +UF5 -.005 ?141 173 163 1
73 173 168 126 255 174 FF3 1 9 3 6 5 4 3 FFF9 3 177 178 179 180 181 125 255 175
 0 1 0 1 -.0197828128971921 1 0 1.01 1 BBBBBBBB????0 0 0 0 45 255 81 177 -.05702
3834299293 930245463992563e-31 .0261389351165607 .0556297555503219 -.145 .02 .05
67562914488181 -.14645 .0199386106488344 -.0570421228272825 930245463992563e-31
 .0261378854294163 .0549240037002146 -.145 .02 .0560436649654896 -.14645 .019938
62114570585 -.057060411355272 930245463992563e-31 .0261368357422719 .05421825185
01073 -.145 .02 .0553310384821611 -.14645 .0199386316425773 -.0570786998832615 9
30245463992563e-31 .0261357860551275 .0535125 -.145 .02 .0546184119988326 -.1464
5 .01993864213944875 -.0575409326325814 930245463992563e-31 .0261092557747811 .0
35675 -.145 .02 .03660715932632575 -.14645 .0199389074422522 -.0580032055884232
 -201661604082304e-31 .0260685505848451 .0178375 -.145 .02 .01859590705588415 -.
14645 .01993931449415155 -.0589278398737391 -201661604082304e-31 .02595598386052
405 -.0178375 -.145 .02 -.01742659660126265 -.14645 .01994044016139475 -.0593902
011602001 260208521396521e-31 .02588413749048115 -.035675 -.145 .02 -.0354378479
8839805 -.14645 .0199411586250952 -.0598526115517736 260208521396521e-31 .025794
97899055165 -.0535125 -.145 .02 -.0534490988844822 -.14645 .0199420502100945 127
 255 4 178 4 3 2 4 127 3 179 2 1 2 128 255 4 180 -.0197828128971921 0 .5 1 128 3
 181 0 1 1.01 141 176 6 176 176 13 60 157 76 0 1 182 167 183 +UF167 -.005 ?141 1
70 157 170 170 167 126 171 FF3 1 23 3 6 5 11 3 FFF9 3 184 185 186 187 188 125 17
2 0 1 0 1 -.01 1 0 1.01 1 BBBBBBBB????0 0 0 0 45 207 184 -.059573101219323 26020
8521396521e-31 .02584887207429335 -.0533710786437627 -.145 .02 -.053309058418007
1 -.14645 .01994151127925705 -.0596662713301399 260208521396521e-31 .02583090771
30461 -.0534182190958418 -.145 .02 -.0533557385734988 -.14645 .01994169092286955
 -.0597594414409568 260208521396521e-31 .0258129433517989 -.0534653595479209 -.1
45 .02 -.0534024187289905 -.14645 .019941870566482 -.0598526115517737 2602085213
96521e-31 .02579497899055165 -.0535125 -.145 .02 -.0534490988844822 -.14645 .019
9420502100945 -.0610172379369848 260208521396521e-31 .0255704244749613 -.0541017
556509888 -.145 .02 -.0540326008281288 -.14645 .0199442957552504 -.0621766033902
259 -3903127820947795e-33 .02523415645560845 -.0547130473796239 -.145 .019947616
5272946 -.0546384118195179 -.14645 .0198947511280115 -.0643723143725716 -3903127
82094782e-32 .02433327279690915 -.055951213668619 -.145 .0197184908410369 -.0558
670026615795 -.14645 .01967234302147815 -.0654109166426806 650521303491303e-32 .
023771495744655 -.0565779623436993 -.145 .0195415478112447 -.0564896328007095 -.
14645 .0194992483319106 -.0673559043006144 650521303491302e-32 .0223995096427539
5 -.0578089318475382 -.145 .01905421821000395 -.0577134621230074 -.14645 .019020
76529567645 -.0682407983424988 -390312782094781e-32 .02160112542980185 -.0584129
031661004 -.145 .01874371665546315 -.0583146242143364 -.14645 .0187151425677198
 -.069785471105122 -3903127820947815e-33 .0198124206443276 -.0595562919016025 -.
145 .01799619356890985 -.0594540001095673 -.14645 .0179780312981557 -.0704527960
543574 -218272060363887e-47 .0188061354150318 -.0600954124471764 -.145 .01755922
317655455 -.0599918386111046 -.14645 .0175467540541698 -.07149236784339 96296497
219362e-48 .01668918568735355 -.0610717231765546 -.145 .01658291244717635 -.0609
675167298862 -.14645 .0165818497147746 -.0718782554860787 -390312782094782e-32 .
0155489996076232 -.0615086935689099 -.145 .0160437919016024 -.0614049979497382 -
.14645 .0160487398245422 -.0722206466177236 -3903127820947815e-33 .0138068740951
0802 -.0620693358838249 -.145 .0151862503499759 -.0619678227764859 -.14645 .0152
0004411252455 -.0722955695790323 3903127820947815e-33 .01322290994067016 -.06224
04016582792 -.145 .01489233392839754 -.0621398499790717 -.14645 .014909028168274
82 -.072368698016503 3903127820947815e-33 .01204861127314756 -.0625500090215238
 -.145 .0142935534891988 -.0624518221315741 -.14645 .0143160029113593 -.07235576
44704619 1301042606982604e-33 .0114573518136015 -.0626885506103141 -.145 .013988
68947157838 -.0625918784717126 -.14645 .01401400284815814 -.0723434622794077 130
1042606982604e-33 .00968577377574742 -.0630540478112447 -.145 .01306546234369926
 -.0629611536665631 -.14645 .01309925922937878 -.0723362452688761 97578195523695
5e-33 .00850476595577125 -.0632309908410369 -.145 .01243871366861894 -.063139938
2967585 -.14645 .01247805314574742 -.0723242920791014 325260651745653e-33 .00614
277596592413 -.0634601165272946 -.145 .01120054737962382 -.0633714747717765 -.14
645 .01125112509376082 -.0723195558998582 3209883240645385e-50 .0049617937960531
9 -.0635125 -.145 .01058925565098872 -.0634244294410014 -.14645 .010645530269538
08 -.0723163161017323 0 .00378079307102759 -.0635125 -.145 .01 -.063424461838982
7 -.14645 .01006219206928964 127 11 185 4 3 2 2 2 2 2 2 2 2 4 127 3 186 2 1 2 12
8 11 187 -.01 0 .125 .25 .375 .5 .625 .6875 .75 .875 1 128 3 188 0 1 1.01 124 18
2 72 0 1 150 157 189 +190 191 141 183 154 183 183 157 60 150 71 0 1 192 182 193
 +UF182 -.005 ?141 189 150 189 189 182 126 190 FF3 1 12 3 6 5 5 3 FFF9 3 194 195
 196 197 198 125 191 0 1 0 1 -.01 1.01 0 1.01 1 BBBBBBBB????0 0 0 0 45 108 194 -
.0723163909784422 -2054325274013115e-50 .00380808781138089 -.0635125 -.145 .0102
 -.0634244610902156 -.14645 .01026391912188612 -.0723163660195389 -1369550182675
428e-50 .003798989564596455 -.0635125 -.145 .01013333333333326 -.063424461339804
6 -.14645 .01019667677102062 -.0723163410606356 -684775091337743e-50 .0037898913
17812025 -.0635125 -.145 .0100666666666666 -.0634244615893936 -.14645 .010129434
42015514 -.0723163161017323 -577317177379914e-63 .00378079307102759 -.0635125 -.
145 .01 -.0634244618389827 -.14645 .01006219206928966 -.0723150681565679 3423875
45668842e-48 .003325880731806 -.0635125 -.145 .00666666666666662 -.0634244743184
343 -.14645 .00670007452601522 -.072314036342125 -3903127820947815e-33 .00287096
847616954 -.0635125 -.145 .003333333333333305 -.0634244846365787 -.14645 .003337
95698190494 -.0723124193415216 -455364912443912e-32 .00196114413762295 -.0635125
 -.145 -.003333333333333315 -.0634245008065848 -.14645 -.00338627810804288 -.072
311834155361 -1301042606982604e-33 .00150623205471282 -.0635125 -.145 -.00666666
666666662 -.0634245066584464 -.14645 -.00674839565388042 -.0723114782194029 -130
1042606982604e-33 .001051320060461562 -.0635125 -.145 -.01 -.063424510217806 -.1
4645 -.01011051320060454 -.0723114711006837 -1301042606982604e-33 .0010422218205
76536 -.0635125 -.145 -.0100666666666666 -.0634245102889932 -.14645 -.0101777555
5153902 -.0723114639819646 -1301042606982604e-33 .001033123580691512 -.0635125 -
.145 -.01013333333333326 -.0634245103601804 -.14645 -.0102449979024735 -.0723114
568632454 -1301042606982604e-33 .001024025340806486 -.0635125 -.145 -.0102 -.063
4245104313675 -.14645 -.010312240253408 127 5 195 4 3 2 3 4 127 3 196 2 1 2 128
 5 197 -.01 0 .5 1 1.01 128 3 198 0 1 1.01 124 192 67 0 1 142 150 199 +200 201 1
41 193 146 193 193 150 60 142 66 0 1 202 192 203 +UF192 -.005 ?141 199 142 199 1
99 192 126 200 FF3 1 41 4 6 5 21 4 FFF9 3 204 205 206 207 208 125 201 0 1 0 1 0
 1 -.01484876890066476 1.01 1 BBBBBBBB????0 0 0 0 45 492 204 -.0724421322135448
 .00215307149059639 .001215418558086568 -.0723114782194029 -1301042606982604e-33
 .001051320060461494 -.0635125 -.145 -.01 -.063424510217806 -.14645 -.0101105132
0060454 -.0724396322048723 .00215307149059639 -.001975399157355715 -.07230901478
96298 -1301042606982604e-33 -.00209712202652645 -.0635125 -.145 -.01029462782549
432 -.0634245348521037 -.14645 -.010376602883484 -.0724490558116221 .00215307149
059639 -.00516613053457717 -.0723181089024794 -1301042606982604e-33 -.0052455596
4381915 -.0634994041318237 -.145 -.0105947646704003 -.0634112170841171 -.14645 -
.0106482567206661 -.0724722632340049 .00215307149059639 -.00915447123596586 -.07
23404753393502 -1301042606982606e-33 -.00918110241182618 -.0634651338523643 -.14
5 -.01097459627239352 -.0633763804374945 -.14645 -.0109925312109992 -.0724774442
687371 .00215307149059639 -.00995213571255243 -.07234546718702 -1301042606982604
e-33 -.00996821076488269 -.0634573847742605 -.145 -.0110507956200852 -.063368503
9501329 -.14645 -.01106162146863722 -.0724887128732391 .00215307149059639 -.0115
47458231533 -.0723563174024925 -1301042606982604e-33 -.01154242713588282 -.06344
00583084036 -.145 -.01120360472684454 -.0633508957174627 -.14645 -.0112002165027
5416 -.0725031393471055 .002153071490596395 -.0123461330971769 -.072370392663641
4 1301042606982606e-33 -.01233053709941782 -.0634304809206504 -.145 -.0112802144
859122 -.0633410818032205 -.14645 -.01126971125977714 -.0722720710742252 .002153
071490596395 -.0147097490679199 -.0721422439071604 1301042606982606e-33 -.014662
9403371304 -.0633989488950787 -.145 -.01151057591536402 -.0633115159449579 -.146
45 -.01147905227114634 -.0718318293698344 .002153071490596395 -.0162782885136124
 -.0717080814075402 260208521396521e-32 -.01621078708893905 -.063374194394948 -.
145 -.011664859737997 -.0632908555248221 -.14645 -.01161940046448758 -.070467929
5143529 .002153071490596395 -.019128692894214 -.0703632993514403 260208521396521
5e-33 -.0190240148124803 -.0633169129733836 -.145 -.01197440131024578 -.06324644
9109603 -.14645 -.01190390517522344 -.0695250019912928 .00215307149059639 -.0204
5434086513765 -.0694336921793406 -333827857027123e-47 -.0203325380932236 -.06328
43735009349 -.145 -.0121296511920316 -.0632228803141508 -.14645 -.01204762232301
968 -.067294720267867 .00215307149059639 -.0226964983917831 -.0672349745652105 3
77482269099902e-46 -.02254643791649715 -.0632113613581995 -.145 -.01244051760149
66 -.0631711252261294 -.14645 -.01233945839834658 -.0659807474717948 .0021530714
90596425 -.02364182670932145 -.0659396349976962 312250225675825e-31 -.0234802115
58871 -.0631708886879127 -.145 -.01259613412917576 -.0631432012248149 -.14645 -.
0124872933548788 -.0631572180644573 .002153071490596425 -.0250913134412882 -.063
1561156740497 312250225675825e-31 -.0249130406312991 -.063081874474996 -.145 -.0
1290714228499796 -.0630811320630055 -.14645 -.01278708330153494 -.06162847611010
76 .00215307149059644 -.025607867217488 -.0616490312853529 461870125478825e-31 -
.0254243100602774 -.063033332932366 -.145 -.013062533913141 -.0630471759488362 -
.14645 -.01293891615166962 -.058526772419319 .00215307149059644 -.02624698771424
075 -.058591169683109 461870125478825e-31 -.0260586145419178 -.0629280453002577
 -.145 -.01337250072446142 -.0629714140564292 -.14645 -.01324563958628686 -.0569
667169849921 .00215307149059648 -.02637475848471765 -.0570531099329982 871698546
678345e-31 -.0261867775014005 -.0628712992107794 -.145 -.01352707590763884 -.062
9294811035572 -.14645 -.01340047889170122 -.0546162937156422 .00215307149059648
 -.02635044433403615 -.0547357399589822 871698546678347e-31 -.0261661961549424 -
.0627799249105468 -.145 -.01375788268960862 -.0628603667600624 -.14645 -.0136337
9955495528 -.0538311452768344 .0021530714905964 -.026307365461785 -.053961618498
6212 910729824887814e-32 -.02612487064326435 -.0627484224861892 -.145 -.01383463
838620234 -.0628362905260649 -.14645 -.01371173606363172 -.0522621071495708 .002
1530714905964 -.02624663539924225 -.0524145855551816 910729824887824e-32 -.02606
72688054446 -.0626833429606531 -.145 -.01398770887710732 -.0627860305347078 -.14
645 -.01386691327782394 -.0514776289337569 .0021530714905964 -.026216800400873 -
.0516410941557882 1105886215935214e-32 -.02603898693872285 -.0626497658594745 -.
145 -.01406402367141858 -.0627598525765114 -.14645 -.01394427403874554 -.0491243
2271596 .0021530714905964 -.0261290156104795 -.0493207012812958 1105886215935214
e-32 -.02595582491739495 -.0625459434983158 -.145 -.01429218503969356 -.06267819
5920486 -.14645 -.01417554864091654 -.0475555112654207 .00215307149059641 -.0260
7278520983325 -.0477737708886305 188651178012478e-31 -.02590262754019035 -.06247
26071807127 -.145 -.0144432485989985 -.0626195955436335 -.14645 -.01432865480958
66 -.0428488944505594 .00215307149059641 -.025911901616611 -.0431326214628855 18
8651178012478e-31 -.02575066871275205 -.0622404016582792 -.145 -.014892333928397
56 -.0624314794602331 -.14645 -.01478375058055402 -.03971101834078065 .002153071
490596385 -.02581516001452565 -.04003815426524355 -520417042793042e-32 -.0256596
4302705775 -.0620693358838248 -.145 -.0151862503499759 -.0622896477000106 -.1464
5 -.01508151642320505 -.03029738481748555 .002153071490596385 -.0255614633271975
 -.03075405336253315 -520417042793042e-32 -.0254222054320293 -.0615086935689098
 -.145 -.01604379190160245 -.0618162399709736 -.14645 -.01595000776629815 -.0240
2163113750295 .00215307149059639 -.0254426756273003 -.02456372989280045 -3252606
51745651e-32 -.0253130439225501 -.0610717231765546 -.145 -.0165829124471764 -.06
14368031093921 -.14645 -.01649561113242265 -.01147001773456392 .0021530714905963
9 -.0252931821395591 -.01218148063516272 -325260651745651e-32 -.0251800226493493
 -.0600954124471764 -.145 -.01755922317655455 -.0605745517652965 -.14645 -.01748
30151818266 -.00519499316463462 .002153071490596385 -.0252531581060371 -.0059903
8099661636 -479759461324835e-32 -.0251469777640647 -.0595562919016024 -.145 -.01
799619356890985 -.0600919510106523 -.14645 -.0179246857269583 .00735395114586415
 .002153071490596385 -.02524337901905245 .00639168282478228 -788757080483204e-32
 -.02514827915065155 -.0584129031661004 -.145 -.01874371665546315 -.059060949026
0092 -.14645 -.0186796710305113 .01362787529460792 .00215307149059638 -.02527362
47249508 .01258264700763454 -943255890062389e-32 -.02518262542252295 -.057808931
8475381 -.145 -.01905421821000395 -.0585128476360898 -.14645 -.01899293413787875
 .0261751574600788 .00215307149059638 -.02540495933647625 .0249643544424958 -943
255890062388e-32 -.02531916877794605 -.0565779623436993 -.145 -.0195415478112447
 -.0573933855115612 -.14645 -.0194837716015777 .03244862315755165 .0021530714905
9639 -.0255153212126866 .03115520014900805 -13010426069826e-31 -.025430504836904
6 -.055951213668619 -.145 -.0197184908410369 -.0568222778067952 -.14645 -.019661
3707010782 .0418563757401712 .00215307149059639 -.02575680535009335 .04043889029
590535 -1301042606982604e-33 -.02567097003788665 -.0550225889518726 -.145 -.0198
903351057302 -.0559772037443504 -.14645 -.01983252875640865 .0449919876860241 .0
02153071490596415 -.0258495463779241 .04353312406759585 208166817117217e-31 -.02
576296479366445 -.0547149952335894 -.145 -.01993207168468875 -.0556974764266013
 -.14645 -.019873762753599 .0496950572326898 .002153071490596415 -.0260044734465
692 .0481740496212453 208166817117217e-31 -.02591622675659255 -.0542591973111976
 -.145 -.01997319602003995 -.055283529780522 -.14645 -.0199137657126744 .0520465
059002402 .00215307149059639 -.0260858554005159 .0504944070948994 -3577867169202
17e-32 -.02599664025213545 -.0540326965137599 -.145 -.01998838805444385 -.055077
9675498465 -.14645 -.01992830553246695 .0543978524804041 .002153071490596385 -.0
261724045696888 .0528146259616939 -715573433840433e-32 -.0260820325379204 -.0538
087937508504 -.145 -.01999586927596945 -.0548750279479758 -.14645 -.019935007643
3499 .0559653974827755 .002153071490596385 -.0262311627989924 .0543614101772613
 -715573433840434e-32 -.0261399795086191 -.0536601582264604 -.145 -.019999181508
239 -.0547403739104976 -.14645 -.0199377735282352 .0567501970810404 .00215307149
059647 -.0262707488698006 .0551358097233868 748099499014998e-31 -.02617899835124
54 -.0535861569563735 -.145 -.02 -.0546733766231711 -.14645 -.01993821001648755
 .0575301179658005 .00215307149059647 -.02626505048171105 .055905396901119 74809
9499014998e-31 -.0261733833391725 -.0535125 -.145 -.02 -.0546066789690111 -.1464
5 -.01993826616660825 127 21 205 4 2 2 2 2 2 2 2 2 2 2 2 2 2 2 2 2 2 1 2 4 127 4
 206 2 1 1 2 128 21 207 0 .0625 .078125 .09375 .125 .15625 .1875 .21875 .25 .265
625 .28125 .3125 .375 .5 .625 .75 .875 .9375 .96875 .984375 1 128 4 208 -.014848
76890066476 0 1 1.01 124 202 62 0 1 134 142 209 +210 211 141 203 138 203 203 142
 60 134 61 0 1 119 202 212 +UF202 -.005 ?141 209 134 209 209 202 126 210 FF3 1 9
 3 6 5 4 3 FFF9 3 213 214 215 216 217 125 211 0 1 0 1 -.01 1 0 1.01 1 BBBBBBBB??
??0 0 0 0 45 81 213 .0558786257160139 748099499014998e-31 -.02617357866535765 -.
05458275 -.145 -.02 -.0556873637571601 -.14645 -.0199382642133464 .0558875494443
823 748099499014998e-31 -.02617351355662925 -.054226 -.145 -.02 -.05532713549444
37 -.14645 -.0199382648644337 .0558964731727506 748099499014998e-31 -.0261734484
4790085 -.05386925 -.145 -.02 -.0549669072317274 -.14645 -.019938265515521 .0559
05396901119 748099499014998e-31 -.0261733833391725 -.0535125 -.145 -.02 -.054606
6789690111 -.14645 -.01993826616660825 .0563515833195371 748099499014998e-31 -.0
261701279027532 -.035675 -.145 -.02 -.0365952658331953 -.14645 -.019938298720972
45 .0567964398968642 -247198095326695e-31 -.02615459131738825 -.0178375 -.145 -.
02 -.01858383939896855 -.14645 -.0199384540868261 .0576833166921711 -33827107781
54775e-32 -.02609732422631215 .0178375 -.145 -.02 .0174390418330783 -.14645 -.01
99390267577369 .058125336910151 565953534037433e-31 -.02605559372060105 .035675
 -.145 -.02 .0354504966308985 -.14645 -.019939444062794 .0585658353663382 565953
534037433e-31 -.02599980966867215 .0535125 -.145 -.02 .0534619666463366 -.14645
 -.0199400019033133 127 4 214 4 3 2 4 127 3 215 2 1 2 128 4 216 -.01 0 .5 1 128
 3 217 0 1 1.01 124 119 57 0 1 114 134 218 +219 220 141 212 130 212 212 134 141
 218 114 218 218 119 126 219 FF3 1 24 3 6 5 11 3 FFF9 3 221 222 223 224 225 125
 220 0 1 0 1 -.01 1.01 0 1.01 1 BBBBBBBB????0 0 0 0 45 216 221 .0582982955676117
 565953534037433e-31 -.02603369050029725 .0533710786437627 -.145 -.02 .053321806
4745242 -.14645 -.01993966309499705 .0583874755005205 565953534037433e-31 -.0260
2239688975555 .0534182190958418 -.145 -.02 .053368526531795 -.14645 -.0199397760
3110245 .0584766554334294 565953534037433e-31 -.02601110327921385 .0534653595479
209 -.145 -.02 .0534152465890658 -.14645 -.01993988896720785 .0585658353663382 5
65953534037433e-31 -.02599980966867215 .0535125 -.145 -.02 .0534619666463366 -.1
4645 -.0199400019033133 .0596805845276988 565953534037433e-31 -.0258586395369007
5 .0541017556509888 -.145 -.02 .0540459673622217 -.14645 -.019941413604631 .0607
92339398998 453738609185184e-31 -.02562349084296755 .0547130473796239 -.145 -.01
99476165272946 .0546522544594302 -.14645 -.0198908577841379 .062953259914116 229
308759480684e-31 -.02494872074830795 .055951213668619 -.145 -.01971849084103685
 .0558811932061641 -.14645 -.01966618854196415 .0640024255579348 117093834628434
6e-32 -.0245090993475815 .0565779623436993 -.145 -.0195415478112447 .05650371771
1557 -.14645 -.0194918722958813 .0659815669707346 1170938346284344e-32 -.0234088
682568656 .0578089318475382 -.145 -.01905421821000395 .0577272054963062 -.14645
 -.0190106717095353 .0669131239895957 100830802041152e-31 -.02274523772982855 .0
584129031661004 -.145 -.01874371665546315 .0583279009578655 -.14645 -.0187037014
447195 .0685993919503531 683047368665867e-32 -.02122586164009325 .05955629190160
25 -.145 -.01799619356890985 .059465860901115 -.14645 -.017963896888198 .0693541
028922495 520417042793042e-32 -.020370116077395 .0600954124471764 -.145 -.017559
22317655455 .0600028255427257 -.14645 -.01753111424754615 .0706258599971905 5204
17042793042e-32 -.0185014248440344 .0610717231765546 -.145 -.01658291244717635 .
0609761818083483 -.14645 -.0165637273232078 .0711453404091251 455364912443912e-3
2 -.0174872611959488 .0615086935689099 -.145 -.0160437919016024 .061412327100507
8 -.14645 -.01602935720865895 .0719223519465402 3252606517456515e-33 -.015364607
56436895 .0622562166554632 -.145 -.01490040316610036 .0621595553025524 -.14645 -
.01489576112211768 .0721798830720207 260208521396521e-32 -.01425611758087464 .06
2566718210004 -.145 -.0142964318475381 .0624705865613838 -.14645 -.0142968349902
0472 .072403843031145 260208521396521e-32 -.01201012100587912 .0630540478112447
 -.145 -.01306546234369926 .0629605498590457 -.14645 -.01307601575707746 .072351
3137884007 650521303491303e-32 -.01086251499261946 .0632309908410369 -.145 -.012
43871366861894 .0631397876115633 -.14645 -.01245447565537894 .0723367322996752 6
50521303491303e-32 -.00858048685703671 .0634601165272947 -.145 -.011200547379623
82 .0633713503695708 -.14645 -.0112267479848497 .0723304315901023 -1301042606982
606e-33 -.0074394688937671 .0635125 -.145 -.01058925565098872 .063424320684099 -
.14645 -.01062075351856092 .072325376187521 -1301042606982604e-33 -.006298446030
60265 .0635125 -.145 -.01 .0634243712381248 -.14645 -.0100370155396939 .07232497
17553145 -1301042606982604e-33 -.0062071642015495 .0635125 -.145 -.0099528595479
2082 .0634243752824469 -.14645 -.00999031650138453 .072324567323108 -13010426069
82604e-33 -.00611588237249634 .0635125 -.145 -.00990571909584171 .06342437932676
89 -.14645 -.00994361746307517 .0723241628909015 -1301042606982604e-33 -.0060246
0054344319 .0635125 -.145 -.00985857864376261 .063424383371091 -.14645 -.0098969
1842476581 127 11 222 4 3 2 2 2 2 2 2 2 3 4 127 3 223 2 1 2 128 11 224 -.01 0 .1
25 .25 .375 .5 .625 .75 .875 1 1.01 128 3 225 0 1 1.01 16 25 78 0 ?30 9 226 155
 0 0 1 16 226 73 0 ?33 25 227 148 0 0 1 17 33 0 32 30 40 31 228 226 0 34 +16 227
 68 0 ?40 226 229 140 0 0 1 133 148 74 0 226 146 154 0 +154 -.0585032924045292 -
.145 .01001296151500386 -.0535038039648526 -.145 .01499600784343004 0 .007796358
25187727 17 40 0 32 33 43 36 230 227 0 228 +16 229 63 0 ?43 227 99 132 0 0 1 133
 140 69 0 227 138 146 0 +146 -.0585033025119899 -.145 -.0100231719428014 -.05850
32924045292 -.145 .0100129615150038 0 .020036133457808 17 43 0 32 40 46 41 231 2
29 0 230 +16 99 58 0 ?46 229 96 125 0 0 1 133 132 64 0 229 130 138 0 +138 -.0536
721050438948 -.145 -.01499547051302624 -.0585033025127675 -.145 -.01002317194280
14 0 .00762609051986946 17 46 0 32 43 49 44 232 99 0 231 +133 125 59 0 99 111 13
0 0 +130 .0535053181953932 -.145 -.01499572148388238 -.0536721050438946 -.145 -.
0149954704631021 0 .1071774232396578 15 32 22 0 28 12 0 17 49 0 32 46 28 47 98 9
6 0 232 +17 232 0 0 0 0 47 46 99 0 0 -17 231 0 0 0 0 44 43 229 0 0 -17 98 0 0 0
 0 50 49 96 0 0 -14 255 12 1 233 ?0 0 75 4 104 +0 0 0 0 4 81 255 1 233 144 234 1
2 0 0 0 0 235 50 104 2 0 12 0 107 236 +.0535125 -.145 -.01 0 -1 0 0 0 -1 141 236
 86 237 238 104 137 86 7 0 1 78 81 239 +104 240 0 ?141 237 101 241 236 104 141 2
38 242 236 243 104 137 242 9 0 1 81 244 245 +104 246 0 ?141 243 247 238 248 104
 137 247 11 0 1 244 249 250 +104 251 0 ?141 248 252 243 253 104 137 252 13 0 1 2
49 254 255 +104 256 0 ?141 253 257 248 258 104 137 257 15 0 1 254 259 260 +104 2
61 0 ?141 258 262 253 241 104 137 262 17 0 1 259 263 264 +104 265 0 ?141 241 266
 258 237 104 137 266 19 0 1 263 85 267 +104 268 0 ?133 263 18 0 57 262 266 0 +26
6 -.0635125 -.145 -.01 -.0535125 -.145 -.02 0 1 133 85 20 0 76 266 101 0 +101 -.
0535125 -.145 -.02 .0535125 -.145 -.02 0 1 141 267 263 267 267 266 134 255 268 0
 0 0 0 0 0 +269 270 136 255 269 2 9 2 5 5 FFF1 271 272 273 135 255 270 2 0 45 18
 271 -711236625150491e-31 -.117025 .001988611612108555 -.117025 .003826834323650
87 -.116263795325113 .00566370995154535 -.1155031484751094 .00707106781186548 -.
1140960678118654 .0084770326608736 -.1126903798855622 .00923879532511288 -.11085
1834323651 .01 -.1090146354920206 .01 -.107025 127 5 272 3 2 2 2 3 128 5 273 0 .
25 .5 .75 1 17 57 0 75 76 60 55 95 94 263 83 -17 60 0 75 57 63 58 93 92 259 95 -
17 63 0 75 60 66 61 91 90 254 93 -133 259 16 0 60 257 262 0 +262 -.0635125 -.145
 .01 -.0635125 -.145 -.01 0 1 17 66 0 75 63 69 64 89 88 249 91 -133 254 14 0 63
 252 257 0 +257 -.0535125 -.145 .02 -.0635125 -.145 .01 0 1 17 69 0 75 66 72 67
 82 87 244 89 -133 249 12 0 66 247 252 0 +252 .0535125 -.145 .02 -.0535125 -.145
 .02 0 1 133 244 10 0 69 242 247 0 +247 .0635125 -.145 .01 .0535125 -.145 .02 0
 1 141 264 259 264 264 262 134 265 0 0 0 0 0 0 +274 275 136 274 1 2 2 2 5 FFF1 2
76 277 278 135 275 2 0 45 4 276 -.02 -.117025 -711236625150491e-31 -.117025 127
 2 277 2 2 128 2 278 0 1 141 260 254 260 260 257 134 261 0 0 0 0 0 0 +279 280 13
6 279 2 9 2 5 5 FFF1 281 282 283 135 280 2 0 45 18 281 -.03 -.107025 -.03 -.1090
136116121102 -.02923879532511285 -.110851834323651 -.02847814847510075 -.1126887
099515644 -.02707106781186545 -.1140960678118654 -.0256653798855502 -.1155020326
60875 -.02382683432365085 -.116263795325113 -.0219896354920292 -.117025 -.02 -.1
17025 127 5 282 3 2 2 2 3 128 5 283 0 .25 .5 .75 1 141 255 249 255 255 252 134 2
56 0 0 0 0 0 0 +284 285 136 284 1 2 2 2 5 FFF1 286 287 288 135 285 2 0 45 4 286
 -.03 -693889390390723e-31 -.03 -.107025 127 2 287 2 2 128 2 288 0 1 141 250 244
 250 250 247 134 251 0 0 0 0 0 0 +289 290 136 289 2 9 2 5 5 FFF1 291 292 293 135
 290 2 0 45 18 291 -.02 .01 -.02198861161210675 .01 -.02382683432365085 .0092387
9532511288 -.02566370995153815 .00847814847511314 -.0270710678118655 .0070710678
1186548 -.02847703266086515 .00566537988557413 -.0292387953251129 .0038268343236
50865 -.03 .001989635492029215 -.03 -693889390390723e-31 127 5 292 3 2 2 2 3 128
 5 293 0 .25 .5 .75 1 133 81 8 0 72 86 242 0 +242 .0635125 -.145 -.01 .0635125 -
.145 .01 0 1 141 245 81 245 245 242 134 246 0 0 0 0 0 0 +294 295 136 294 1 2 2 2
 5 FFF1 296 297 298 135 295 2 0 45 4 296 -711236625150491e-31 .01 -.02 .01 127 2
 297 2 2 128 2 298 0 1 141 239 78 239 239 86 134 240 0 0 0 0 0 0 +299 300 136 29
9 2 9 2 5 5 FFF1 301 302 303 135 300 2 0 45 18 301 .01 0 .01 .00198861161211027
 .00923879532511286 .00382683432365092 .00847814847510571 .00566370995155258 .00
707106781186545 .0070710678118655 .00566537988554197 .0084770326608903 .00382683
432365085 .00923879532511288 .001989635492000625 .01 -728583859910259e-31 .01 12
7 5 302 3 2 2 2 3 128 5 303 0 .25 .5 .75 1 80 255 1 234 304 305 9000 1 1 1 1 1 1
 1 1 0 FFFFTFTFFFFFFF1 82 255 1 235 791348358 79 255 14 305 SWEntUnchanged17 230
 0 0 0 0 41 40 227 0 0 -17 228 0 0 0 0 36 33 226 0 0 -17 34 0 0 0 0 31 30 25 0 0
 -141 156 148 156 156 154 40 6 158 0 1 6 .0002816924966493275 .3377551414866485
 ??-.0585032924045292 -.145 .01001296151500362 -.0582226162585335 -.145 .0116558
4114912552 -.0574150830867966 -.145 .013113484108329 -.056166111995468 -.145 .01
42300398843399 -.0546147548043227 -.145 .01487190233315984 -.0535038039648525 -.
145 .01499600784343004 41 1 159 L?-.0585032924045292 -.145 .01001296151500362 41
 1 160 L?-.0535038039648525 -.145 .01499600784343004 141 149 140 149 149 146 40
 4 151 0 1 4 1380481125246204e-24 2746668244044175e-22 ??-.0585033025119899 -.14
5 -.0100231719428014 -.0585033010358203 -.145 -.00500482201451016 -.058503298847
8381 -.145 1352791378080774e-20 -.0585032924045292 -.145 .0100129615150038 41 1
 152 L?-.0585033025119899 -.145 -.0100231719428014 41 1 153 L?-.0585032924045292
 -.145 .0100129615150038 141 141 132 141 141 138 40 6 143 0 1 6 .000349340030167
52 .354287103836429 ??-.0536721050438948 -.145 -.01499547051302624 -.05465197479
97944 -.145 -.0148366834792234 -.0563264388535152 -.145 -.0140364457436253 -.057
6914379681903 -.145 -.01269622961722004 -.0583216357326419 -.145 -.0113576991994
1306 -.0585033025127675 -.145 -.0100231719428014 41 1 144 L?-.0536721050438948 -
.145 -.01499547051302624 41 1 145 L?-.0585033025127675 -.145 -.0100231719428014
 141 133 125 133 133 130 40 8 135 0 1 8 7420596713496e-21 749956604325539e-21 ??
.0535053181953932 -.145 -.01499572148388238 .03601458381794675 -.145 -.014995649
67042682 .0185238494404547 -.145 -.0149955899827036 .001033115062925544 -.145 -.
01499554238805168 -.00771225212584973 -.145 -.0149955230997222 -.025202986503418
5 -.145 -.01499549347571296 -.0339483536922089 -.145 -.01499548310749156 -.05367
21050438946 -.145 -.0149954704631021 41 1 136 L?.0535053181953932 -.145 -.014995
72148388238 41 1 137 L?-.0536721050438946 -.145 -.0149954704631021 141 126 100 1
26 126 111 40 6 127 0 1 6 .0002823989997544765 .3380745206448445 ??.058503273461
0417 -.145 -.01000768815450346 .0582213797671135 -.145 -.01165491598368862 .0574
11461122579 -.145 -.01311623507904948 .0561588885447651 -.145 -.0142337718388980
6 .054607428135974 -.145 -.0148731650717429 .0535053181954906 -.145 -.0149957211
99127 41 1 128 L?.0585032734610417 -.145 -.01000768815450346 41 1 129 L?.0535053
181954906 -.145 -.014995721199127 141 120 111 120 120 114 141 116 107 116 116 11
2 126 117 FF3 1 9 3 6 5 4 3 FFF9 3 306 307 308 309 310 125 118 0 1 0 1 -.01 1 0
 1.01 1 BBBBBBBB????0 0 0 0 45 81 306 .0723254961537481 -1301042606982604e-33 -.
00632552284709072 .0635125 -.145 -.0102 .0634243700384625 -.14645 -.010238744771
52902 .0723254561650057 -1301042606982604e-33 -.0063164972415947 .0635125 -.145
 -.01013333333333326 .06342437043835 -.14645 -.01017150169425064 .07232541617626
33 -1301042606982604e-33 -.00630747163609868 .0635125 -.145 -.0100666666666666 .
0634243708382374 -.14645 -.01010425861697226 .072325376187521 -1301042606982604e
-33 -.00629844603060265 .0635125 -.145 -.01 .0634243712381248 -.14645 -.01003701
55396939 .0723233767504021 -1301042606982606e-33 -.0058471657558015 .0635125 -.1
45 -.00666666666666661 .063424391232496 -.14645 -.00667486167577527 .07232157276
82511 3903127820947815e-33 -.00539588471194602 .0635125 -.145 -.0033333333333333
05 .0634244092723175 -.14645 -.003312707819547175 .07231837715376 32526065174565
15e-33 -.00449332100176702 .0635125 -.145 .003333333333333315 .0634244412284624
 -.14645 .00341159987668432 .0723169855214199 -260208521396521e-32 -.00404203833
54435 .0635125 -.145 .00666666666666663 .0634244551447858 -.14645 .0067737537166
8773 .0723158073640908 -260208521396521e-32 -.0035907548291624 .0635125 -.145 .0
1 .0634244669263591 -.14645 .01013590754829156 127 4 307 4 3 2 4 127 3 308 2 1 2
 128 4 309 -.01 0 .5 1 128 3 310 0 1 1.01 141 113 102 113 113 107 141 103 85 103
 103 101 134 105 0 0 0 0 0 0 +311 312 136 311 1 2 2 2 5 FFF1 313 314 315 135 312
 2 0 45 4 313 .01 -.107025 .01 -693889390390723e-31 127 2 314 2 2 128 2 315 0 1
 17 24 0 32 28 30 10 35 9 0 0 +17 35 0 0 0 0 27 24 9 0 0 -141 18 17 18 18 6 40 7
 20 0 1 7 .0003110828686142245 .3365532361448435 ??.0536666049388552 -.145 .0149
955286533501 .054337642040685 -.145 .01491508750032896 .0560139553471661 -.145 .
01423983895853228 .0574255563645259 -.145 .01304827878197086 .0581818449447058 -
.145 .0117879978208627 .0584916990311311 -.145 .0103533084248683 .05850329345870
37 -.145 .01002840411517888 41 1 21 L?.0536666049388552 -.145 .0149955286533501
 41 1 22 L?.0585032934587037 -.145 .01002840411517888 141 14 13 14 14 5 126 15 F
F3 1 41 4 6 5 20 4 FFF9 3 316 317 318 319 320 125 16 0 1 0 1 -.01 1 -.0135668903
8064898 1.01 1 BBBBBBBB????0 0 0 0 45 492 316 .0724392923421026 .001967199105194
1 -.00532510360361448 .0723198046059645 -260208521396521e-32 -.00512186555925867
 .0635125 -.145 .00985857864376262 .0634244269539404 -.14645 .01000838308579282
 .0724379418514306 .0019671991051941 -.00480844877244963 .0723184721920066 -2602
08521396521e-32 -.00461149531589324 .0635125 -.145 .00990571909584173 .063424440
2780799 -.14645 .01005089123995908 .0724365913607586 .0019671991051941 -.0042917
93941284775 .0723171397780487 -260208521396521e-32 -.00410112507252782 .0635125
 -.145 .00995285954792083 .0634244536022195 -.14645 .01009339939412532 .07243524
08700866 .0019671991051941 -.00377513911011992 .0723158073640908 -26020852139652
1e-32 -.0035907548291624 .0635125 -.145 .01 .0634244669263591 -.14645 .010135907
54829156 .0724268003033866 .0019671991051941 -.000546046415339586 .0723074797768
54 -2602085213965215e-33 -.0004009408081285175 .0635125 -.145 .01029462782549432
 .0634245502022315 -.14645 .01040158351183054 .0724300545035509 .001967199105194
1 .00268302123762901 .0723105151265537 -1301042606982602e-33 .002788922246127735
 .0634994041318237 -.145 .0105947646704003 .0634112930218764 -.14645 .0106728230
9464302 .0724511025294991 .0019671991051941 .0075264418695497 .0723307309571939
 -1301042606982596e-33 .00757361326000667 .0634582797964725 -.145 .0110505625927
9216 .0633695552848653 -.14645 .01108533208612 .0724606804260266 .00196719910519
411 .00914089292528051 .0723399492431239 650521303491302e-32 .00916850055395687
 .063440991595841 -.145 .0112034273427616 .0633520020193682 -.14645 .01122377661
064964 .0724778299932953 .00196719910519411 .01156254446964452 .0723564471929809
 650521303491303e-32 .0115608210368356 .0634094595702693 -.145 .0114337887722134
 .0633199896940422 -.14645 .0114325184495672 .0724920427146472 .0019671991051941
 .0123758962767413 .0723703164920858 -260208521396521e-32 .01236431608401012 .06
33980156076413 -.145 .01151075329944696 .0633082925987969 -.14645 .0115022176716
0132 .0723271644982285 .0019671991051941 .01399352560186544 .0722073133605544 -2
602085213965215e-33 .01396235735518828 .0633732228422851 -.145 .0116649814788698
6 .0632848819371024 -.14645 .01164200772010666 .0721735902008131 .00196719910519
4105 .0147820901240545 .0720556160225514 130104260698261e-32 .01474140090641574
 .0633598740395569 -.145 .0117422451310592 .063272916619727 -.14645 .01171225357
330564 .0715119790385029 .001967199105194105 .01709059649035825 .071402285673395
2 1301042606982604e-33 .0170221147159107 .0633169129733836 -.145 .01197440131024
58 .0632360592463835 -.14645 .01192392417618914 .0707852724472362 .0019671991051
941 .01857229226569665 .0706848707128005 147654629069687e-47 .01848605562355905
 .0632843735009349 -.145 .0121296511920316 .0632103685288162 -.14645 .0120660871
4771632 .0689086235041765 .0019671991051941 .02116127601485705 .0688323639778069
 1925929944387235e-49 .02104454610334055 .0632113613581995 -.145 .01244051760149
656 .0631551513320034 -.14645 .01235447731647812 .0677291971644124 .001967199105
19411 .0223106834288409 .0676681828672715 780625564189563e-32 .02218065133456395
 .0631708886879128 -.145 .01259613412917574 .0631259157461192 -.14645 .012500288
95712186 .06510732282548 .00196719910519411 .0241538576205598 .0650802116046978
 780625564189561e-32 .02400331703409425 .063081874474996 -.145 .0129071422849979
4 .063061891103699 -.14645 .01279618053750698 .0636320920747186 .001967199105194
09 .0248729025376297 .0636240775078204 -1301042606982604e-32 .02471481728642015
 .0630333329323661 -.145 .01306253391314098 .0630274254866115 -.14645 .012946011
0794082 .0605887323254416 .00196719910519409 .02586957966032675 .060620044716361
8 -1301042606982602e-32 .0257023025900018 .0629280453002578 -.145 .0133725007244
6142 .0629511253060967 -.14645 .01324920270580602 .0590165660210372 .00196719910
519407 .02615879437421005 .0590681627564162 -3252606517456515e-32 .0259897151142
405 .0628712992107794 -.145 .01352707590763884 .0629093305753231 -.14645 .013402
44951557282 .0557902122505921 .00196719910519407 .02639739348204765 .05588336391
59049 -3252606517456515e-32 .0262292397250203 .0627494668104693 -.145 .013834818
28359854 .0628181278394149 -.14645 .01371087406918432 .0541779831781985 .0019671
9910519409 .026301606028346 .0542918437073769 -1301042606982606e-32 .02613678439
361205 .0626843733131941 -.145 .01398796988199358 .0627682986092523 -.14645 .013
8664817368774 .0509560036604279 .00196719910519409 .026178355679756 .05111113840
76175 -1301042606982606e-32 .0260192557963148 .0625459434983159 -.145 .014292185
03969354 .0626602915492229 -.14645 .01417491433212734 .0493450186224832 .0019671
99105194125 .0261190044954039 .0495207352492023 234187669256869e-31 .02596272107
5078 .0624726071807127 -.145 .0144432485989985 .0626021259000278 -.14645 .014328
0538742377 .044512051280676 .001967199105194125 .0259488506663024 .0447493504549
933 234187669256869e-31 .0258008559439031 .0622404016582792 -.145 .0148923339283
9756 .0624153121703121 -.14645 .0147832487082425 .0412900546753025 .001967199105
194105 .0258460392768298 .04156819145445365 520417042793043e-32 .025703354872648
9 .0620693358838249 -.145 .0151862503499759 .0622743473281186 -.14645 .015081079
30474915 .0316238541338033 .001967199105194105 .025575649239464 .032023871482936
6 520417042793041e-32 .02544806253072865 .0615086935689099 -.145 .01604379190160
245 .0618035417897696 -.14645 .0159497491953112 .02517938218961485 .001967199105
194095 .02544797741737785 .0256598117106421 -487890977618476e-32 .02532931592023
395 .0610717231765546 -.145 .0165829124471764 .0614258422912137 -.14645 .0164954
484124458 .0122897651135235 .001967199105194095 .0252876158333435 .0129296577373
9174 -487890977618477e-32 .0251841690288076 .0600954124471764 -.145 .01755922317
65546 .0605670699942742 -.14645 .01748297371803205 .00584526066671029 .001967199
1051941 .02524469775515715 .00656419858774057 -471627945031194e-32 .025147674398
68035 .0595562919016025 -.145 .0179961935689099 .0600862128347411 -.14645 .01792
46787606122 -.00704263122298756 .0019671991051941 .02523320890472855 -.006166489
67940373 -439101879856629e-32 .0251463451458514 .0584129031661004 -.145 .0187437
166554632 .0590586970945554 -.14645 .0186796903705593 -.01348602269349346 .00196
7199105194095 .02526463882629235 -.01253171879689688 -4228388472693465e-33 .0251
815105231497 .0578089318475381 -.145 .01905421821000395 .0585123383539825 -.1464
5 .0189929452868725 -.026371252229991 .001967199105194095 .0254014400391853 -.02
526095264151535 -422838847269347e-32 .02532300366142535 .0565779623436993 -.145
 .0195415478112447 .0573963514935514 -.14645 .0194837332527429 -.032813156157565
7 .001967199105194105 .0255171264654592 -.03162501900887985 1301042606982604e-33
 .0254395100253204 .055951213668619 -.145 .0197184908410369 .056826975995394 -.1
4645 .01966128064919405 -.0424752232326756 .001967199105194105 .0257704543645524
 -.04117018639414575 1301042606982602e-33 .02569174724204605 .0550225889518727 -
.145 .0198903351057302 .0559845167053328 -.14645 .01983232098436705 -.0456958922
580495 .00196719910519412 .02586773773823105 -.0443518630513426 1431146867680866
e-32 .0257882871055705 .0547149952335895 -.145 .01993207168468875 .0557056638164
388 -.14645 .01987350953047995 -.0505269340570097 .001967199105194115 .026029968
0952966 -.0491243409265742 1431146867680866e-32 .02594889642298225 .054259197311
1976 -.145 .01997319602003995 .0552930326935753 -.14645 .0199134390160105 -.0521
372864671668 .001967199105194095 .02608673829548595 -.0507151594834151 -91072982
4887824e-32 .02600504230393635 .0541081967795725 -.145 .0199833240429759 .055156
4303422024 -.14645 .0199231068603663 -.0553580096040226 .001967199105194095 .026
20495992459955 -.0538967837569509 -910729824887824e-32 .02612186089140825 .05380
85050803472 -.145 .0199967260329559 .0548855579687202 -.14645 .0199354746843714
 -.056968252157367 .001967199105194195 .0263115991892984 -.0554874630159293 9302
45463992563e-31 .026227116581253 .0536598139127471 -.145 .02 .0547512866820339 -
.14645 .0199377288341875 -.0585790785691422 .001967199105194195 .026219029591936
5 -.0570786998832615 930245463992563e-31 .0261357860551275 .0535125 -.145 .02 .0
546184119988326 -.14645 .01993864213944875 127 20 317 4 3 2 2 2 2 2 2 2 2 2 2 2
 2 2 2 2 2 2 4 127 4 318 2 1 1 2 128 20 319 -.01 0 .0625 .09375 .109375 .125 .15
625 .1875 .21875 .25 .28125 .3125 .375 .5 .625 .75 .875 .9375 .96875 1 128 4 320
 -.01356689038064898 0 1 1.01 74 4 CI16 index_map_offset0 0 1 dCCZ20 11 1 0 0 23
3 0 0 0 0 0 0 0 0 0 0 0 0 0 0 0 0 0 0 0 1 0 
